<svg xmlns="http://www.w3.org/2000/svg" version="1.1" xmlns:xlink="http://www.w3.org/1999/xlink" xmlns:svgjs="http://svgjs.dev/svgjs" width="2000" height="212" viewBox="0 0 2000 212"><g transform="matrix(1,0,0,1,-1.2121212121212466,0.3053570557068639)"><svg viewBox="0 0 396 42" data-background-color="#ffffff" preserveAspectRatio="xMidYMid meet" height="212" width="2000" xmlns="http://www.w3.org/2000/svg" xmlns:xlink="http://www.w3.org/1999/xlink"><g id="tight-bounds" transform="matrix(1,0,0,1,0.2400000000000091,-0.060495265753246485)"><svg viewBox="0 0 395.52 42.1209905315065" height="42.1209905315065" width="395.52"><g><svg viewBox="0 0 457.9655074112455 48.77113875764978" height="42.1209905315065" width="395.52"><g><rect width="2.584332112245076" height="48.77113875764978" x="53.095907989458325" y="0" fill="#0f172a" opacity="1" stroke-width="0" stroke="transparent" fill-opacity="1" class="rect-yte-0" data-fill-palette-color="primary" rx="1%" id="yte-0" data-palette-color="#0f172a"></rect></g><g transform="matrix(1,0,0,1,62.44550741124549,0.12132124069066919)"><svg viewBox="0 0 395.52 48.52849627626844" height="48.52849627626844" width="395.52"><g id="textblocktransform"><svg viewBox="0 0 395.52 48.52849627626844" height="48.52849627626844" width="395.52" id="textblock"><g><svg viewBox="0 0 395.52 28.657158328428487" height="28.657158328428487" width="395.52"><g transform="matrix(1,0,0,1,0,0)"><svg width="395.52" viewBox="1.95 -29.52 414.77000000000004 30.06" height="28.657158328428487" data-palette-color="#0f172a"><path d="M14.99-28.98Q18.82-28.98 21.73-27.23 24.63-25.49 26.23-22.2 27.83-18.92 27.83-14.48L27.83-14.48Q27.83-10.03 26.23-6.76 24.63-3.49 21.73-1.75 18.82 0 14.99 0L14.99 0 3.49 0Q2.66 0 2.31-0.38 1.95-0.76 1.95-1.66L1.95-1.66Q1.95-2.56 2.31-2.94 2.66-3.32 3.49-3.32L3.49-3.32 6.23-3.32 6.23-25.66 3.49-25.66Q2.66-25.66 2.31-26.04 1.95-26.42 1.95-27.32L1.95-27.32Q1.95-28.22 2.31-28.6 2.66-28.98 3.49-28.98L3.49-28.98 14.99-28.98ZM9.89-25.66L9.89-3.32 14.43-3.32Q17.33-3.32 19.48-4.6 21.63-5.88 22.8-8.39 23.97-10.89 23.97-14.48L23.97-14.48Q23.97-18.07 22.8-20.57 21.63-23.07 19.48-24.37 17.33-25.66 14.43-25.66L14.43-25.66 9.89-25.66ZM45.7-28.98Q48.56-28.98 50.56-28 52.56-27.03 53.57-25.26 54.59-23.49 54.59-21.12L54.59-21.12Q54.59-19.26 53.75-17.83 52.9-16.41 51.34-15.5L51.34-15.5Q53.93-14.67 55.31-12.83 56.69-10.99 56.69-8.28L56.69-8.28Q56.69-5.71 55.59-3.86 54.49-2 52.39-1 50.29 0 47.31 0L47.31 0 33.47 0Q32.64 0 32.29-0.38 31.93-0.76 31.93-1.66L31.93-1.66Q31.93-2.56 32.29-2.94 32.64-3.32 33.47-3.32L33.47-3.32 36.45-3.32 36.45-25.66 33.47-25.66Q32.64-25.66 32.29-26.04 31.93-26.42 31.93-27.32L31.93-27.32Q31.93-28.22 32.29-28.6 32.64-28.98 33.47-28.98L33.47-28.98 45.7-28.98ZM40.11-25.66L40.11-16.63 45.16-16.63Q47.97-16.63 49.41-17.8 50.85-18.97 50.85-21.12L50.85-21.12Q50.85-23.36 49.44-24.51 48.02-25.66 45.16-25.66L45.16-25.66 40.11-25.66ZM40.11-13.31L40.11-3.32 46.58-3.32Q49.58-3.32 51.21-4.61 52.83-5.91 52.83-8.28L52.83-8.28Q52.83-13.31 46.7-13.31L46.7-13.31 40.11-13.31ZM116.67-28.98Q117.5-28.98 117.85-28.6 118.21-28.22 118.21-27.32L118.21-27.32Q118.21-26.42 117.85-26.04 117.5-25.66 116.67-25.66L116.67-25.66 115.28-25.66 115.28-0.9Q115.28-0.24 114.82 0.15 114.37 0.54 113.44 0.54L113.44 0.54Q112.15 0.54 111.39-0.81L111.39-0.81 98.72-23.44 98.63-23.44 98.63-3.32 102.07-3.32Q102.9-3.32 103.25-2.94 103.61-2.56 103.61-1.66L103.61-1.66Q103.61-0.76 103.25-0.38 102.9 0 102.07 0L102.07 0 93.43 0Q92.6 0 92.24-0.38 91.89-0.76 91.89-1.66L91.89-1.66Q91.89-2.56 92.24-2.94 92.6-3.32 93.43-3.32L93.43-3.32 95.06-3.32 95.06-25.66 93.18-25.66Q92.35-25.66 92-26.04 91.64-26.42 91.64-27.32L91.64-27.32Q91.64-28.22 92-28.6 92.35-28.98 93.18-28.98L93.18-28.98 98.65-28.98Q99.19-28.98 99.52-28.81 99.85-28.64 100.04-28.3L100.04-28.3 111.61-7.59 111.71-7.59 111.71-25.66 108.76-25.66Q107.93-25.66 107.57-26.04 107.22-26.42 107.22-27.32L107.22-27.32Q107.22-28.22 107.57-28.6 107.93-28.98 108.76-28.98L108.76-28.98 116.67-28.98ZM135.12-23.1Q138.66-23.1 141.16-21.67 143.67-20.24 145.01-17.71 146.35-15.19 146.55-11.89L146.55-11.89Q146.55-11.06 146.19-10.72 145.84-10.38 145.01-10.38L145.01-10.38 127.33-10.38Q127.5-6.74 129.49-4.87 131.48-3 135.12-3L135.12-3Q137.37-3 139.57-3.58 141.76-4.15 143.42-5.1L143.42-5.1Q143.84-5.32 144.18-5.32L144.18-5.32Q145.03-5.32 145.57-4.03L145.57-4.03Q145.79-3.52 145.79-3.1L145.79-3.1Q145.79-2.12 144.72-1.59L144.72-1.59Q142.84-0.63 140.27-0.05 137.71 0.54 135.12 0.54L135.12 0.54Q131.44 0.54 128.82-0.88 126.21-2.29 124.84-4.96 123.48-7.62 123.48-11.28L123.48-11.28Q123.48-14.77 124.97-17.46 126.45-20.14 129.09-21.62 131.73-23.1 135.12-23.1L135.12-23.1ZM135.12-19.56Q132.12-19.56 130.15-18.03 128.19-16.5 127.58-13.79L127.58-13.79 142.49-13.79Q141.98-16.6 140.14-18.08 138.3-19.56 135.12-19.56L135.12-19.56ZM176.38-22.56Q177.21-22.56 177.56-22.18 177.92-21.8 177.92-20.9L177.92-20.9Q177.92-20 177.56-19.62 177.21-19.24 176.38-19.24L176.38-19.24 174.79-19.24 167.54-11.6 175.38-3.32 176.62-3.32Q177.45-3.32 177.81-2.94 178.16-2.56 178.16-1.66L178.16-1.66Q178.16-0.76 177.81-0.38 177.45 0 176.62 0L176.62 0 168.22 0Q167.39 0 167.04-0.38 166.69-0.76 166.69-1.66L166.69-1.66Q166.69-2.56 167.04-2.94 167.39-3.32 168.22-3.32L168.22-3.32 170.57-3.32 164.71-9.62 158.87-3.32 160.8-3.32Q161.63-3.32 161.99-2.94 162.34-2.56 162.34-1.66L162.34-1.66Q162.34-0.76 161.99-0.38 161.63 0 160.8 0L160.8 0 153.14 0Q152.31 0 151.95-0.38 151.6-0.76 151.6-1.66L151.6-1.66Q151.6-2.56 151.95-2.94 152.31-3.32 153.14-3.32L153.14-3.32 154.36-3.32 162.29-11.65 155.11-19.24 153.38-19.24Q152.55-19.24 152.2-19.62 151.84-20 151.84-20.9L151.84-20.9Q151.84-21.8 152.2-22.18 152.55-22.56 153.38-22.56L153.38-22.56 161.78-22.56Q162.61-22.56 162.96-22.18 163.32-21.8 163.32-20.9L163.32-20.9Q163.32-20 162.96-19.62 162.61-19.24 161.78-19.24L161.78-19.24 159.92-19.24 165.1-13.62 170.3-19.24 168.96-19.24Q168.13-19.24 167.77-19.62 167.42-20 167.42-20.9L167.42-20.9Q167.42-21.8 167.77-22.18 168.13-22.56 168.96-22.56L168.96-22.56 176.38-22.56ZM191.05-29.52Q192.05-29.52 192.47-29.15 192.88-28.78 192.88-27.93L192.88-27.93 192.88-20.61 202.91-20.61Q203.74-20.61 204.1-20.23 204.45-19.85 204.45-18.95L204.45-18.95Q204.45-18.04 204.1-17.66 203.74-17.29 202.91-17.29L202.91-17.29 192.88-17.29 192.88-8.4Q192.88-5.62 193.84-4.32 194.81-3.03 197.2-3.03L197.2-3.03Q198.84-3.03 200.64-3.69 202.45-4.35 204.14-5.44L204.14-5.44Q204.48-5.69 204.89-5.69L204.89-5.69Q205.72-5.69 206.31-4.57L206.31-4.57Q206.63-3.93 206.63-3.47L206.63-3.47Q206.63-2.69 205.82-2.2L205.82-2.2Q203.92-1 201.57-0.23 199.23 0.54 197.2 0.54L197.2 0.54Q193.05 0.54 191.13-1.62 189.22-3.78 189.22-8.08L189.22-8.08 189.22-17.29 184.26-17.29Q183.43-17.29 183.08-17.66 182.72-18.04 182.72-18.95L182.72-18.95Q182.72-19.85 183.08-20.23 183.43-20.61 184.26-20.61L184.26-20.61 189.22-20.61 189.22-27.93Q189.22-28.78 189.63-29.15 190.05-29.52 191.05-29.52L191.05-29.52ZM232.87-29.52Q233.87-29.52 234.28-29.15 234.7-28.78 234.7-27.93L234.7-27.93 234.7-22.31Q234.7-21.46 234.28-21.09 233.87-20.73 232.87-20.73L232.87-20.73Q231.94-20.73 231.6-21.36L231.6-21.36Q230.43-23.58 228.3-24.74 226.18-25.9 223.47-25.9L223.47-25.9Q220.78-25.9 219.31-24.66 217.83-23.41 217.83-21.31L217.83-21.31Q217.83-20.31 218.34-19.63 218.85-18.95 219.81-18.46L219.81-18.46Q220.66-18.02 221.81-17.74 222.96-17.46 224.88-17.09L224.88-17.09Q226.98-16.67 228.22-16.39 229.45-16.11 230.65-15.63L230.65-15.63Q233.09-14.62 234.47-12.83 235.85-11.04 235.85-7.98L235.85-7.98Q235.85-5.44 234.65-3.53 233.45-1.61 231.12-0.54 228.79 0.54 225.52 0.54L225.52 0.54Q223.08 0.54 220.99-0.35 218.9-1.25 217.37-2.95L217.37-2.95 217.37-1.05Q217.37-0.2 216.95 0.17 216.54 0.54 215.53 0.54L215.53 0.54Q214.53 0.54 214.12 0.17 213.7-0.2 213.7-1.05L213.7-1.05 213.7-8.37Q213.7-9.23 214.12-9.59 214.53-9.96 215.53-9.96L215.53-9.96Q216.58-9.96 216.95-8.94L216.95-8.94Q217.95-6.1 220.14-4.59 222.32-3.08 225.52-3.08L225.52-3.08Q228.64-3.08 230.32-4.42 231.99-5.76 231.99-7.98L231.99-7.98Q231.99-9.52 231.22-10.49 230.45-11.45 228.99-12.08L228.99-12.08Q228.06-12.5 226.96-12.76 225.86-13.01 223.96-13.4L223.96-13.4Q221.96-13.79 220.6-14.14 219.25-14.48 218.1-14.99L218.1-14.99Q216.14-15.87 215.06-17.37 213.97-18.87 213.97-21.31L213.97-21.31Q213.97-23.83 215.18-25.68 216.39-27.54 218.55-28.53 220.71-29.52 223.47-29.52L223.47-29.52Q225.62-29.52 227.62-28.69 229.62-27.86 231.04-26.44L231.04-26.44 231.04-27.93Q231.04-28.78 231.45-29.15 231.87-29.52 232.87-29.52L232.87-29.52ZM251.01-29.52Q252.01-29.52 252.42-29.15 252.84-28.78 252.84-27.93L252.84-27.93 252.84-20.61 262.87-20.61Q263.7-20.61 264.05-20.23 264.41-19.85 264.41-18.95L264.41-18.95Q264.41-18.04 264.05-17.66 263.7-17.29 262.87-17.29L262.87-17.29 252.84-17.29 252.84-8.4Q252.84-5.62 253.8-4.32 254.77-3.03 257.16-3.03L257.16-3.03Q258.79-3.03 260.6-3.69 262.41-4.35 264.09-5.44L264.09-5.44Q264.43-5.69 264.85-5.69L264.85-5.69Q265.68-5.69 266.26-4.57L266.26-4.57Q266.58-3.93 266.58-3.47L266.58-3.47Q266.58-2.69 265.78-2.2L265.78-2.2Q263.87-1 261.53-0.23 259.18 0.54 257.16 0.54L257.16 0.54Q253.01 0.54 251.09-1.62 249.17-3.78 249.17-8.08L249.17-8.08 249.17-17.29 244.22-17.29Q243.39-17.29 243.03-17.66 242.68-18.04 242.68-18.95L242.68-18.95Q242.68-19.85 243.03-20.23 243.39-20.61 244.22-20.61L244.22-20.61 249.17-20.61 249.17-27.93Q249.17-28.78 249.59-29.15 250-29.52 251.01-29.52L251.01-29.52ZM284.89-23.1Q289.48-23.1 291.77-21.04 294.07-18.99 294.07-14.97L294.07-14.97 294.07-5.25Q294.07-3.32 295.68-3.32L295.68-3.32 296.54-3.32Q297.37-3.32 297.72-2.94 298.07-2.56 298.07-1.66L298.07-1.66Q298.07-0.76 297.72-0.38 297.37 0 296.54 0L296.54 0 294.97 0Q293.39 0 292.25-0.79 291.12-1.59 290.77-3.13L290.77-3.13Q288.77-1.37 286.44-0.42 284.11 0.54 281.5 0.54L281.5 0.54Q279.03 0.54 277.14-0.31 275.25-1.15 274.17-2.76 273.1-4.37 273.1-6.59L273.1-6.59Q273.1-10.45 275.86-12.29 278.62-14.14 282.99-14.14L282.99-14.14Q286.87-14.14 290.41-12.89L290.41-12.89 290.41-14.97Q290.41-17.33 289.08-18.44 287.75-19.56 284.79-19.56L284.79-19.56Q282.96-19.56 280.98-19.04 279.01-18.53 277.22-17.63L277.22-17.63Q276.81-17.41 276.47-17.41L276.47-17.41Q275.66-17.41 275.12-18.58L275.12-18.58Q274.86-19.17 274.86-19.56L274.86-19.56Q274.86-20.41 275.76-20.87L275.76-20.87Q277.81-21.95 280.17-22.52 282.52-23.1 284.89-23.1L284.89-23.1ZM283.01-10.69Q280.2-10.69 278.58-9.73 276.96-8.76 276.96-6.67L276.96-6.67Q276.96-4.88 278.19-3.89 279.42-2.91 281.64-2.91L281.64-2.91Q286.5-2.91 290.41-6.93L290.41-6.93 290.41-9.59Q288.75-10.13 286.84-10.41 284.94-10.69 283.01-10.69L283.01-10.69ZM322.24-23.1Q324.14-23.1 325.81-22.12L325.81-22.12Q326.78-21.53 326.78-20.61L326.78-20.61Q326.78-20.17 326.56-19.58L326.56-19.58Q326.05-18.19 325.15-18.19L325.15-18.19Q324.78-18.19 324.46-18.38L324.46-18.38Q323.27-19.04 321.9-19.04L321.9-19.04Q319.7-19.04 317.48-17.52 315.26-15.99 313.83-13.45 312.4-10.91 312.4-8.06L312.4-8.06 312.4-3.32 320.63-3.32Q321.46-3.32 321.81-2.94 322.17-2.56 322.17-1.66L322.17-1.66Q322.17-0.76 321.81-0.38 321.46 0 320.63 0L320.63 0 304.91 0Q304.08 0 303.72-0.38 303.37-0.76 303.37-1.66L303.37-1.66Q303.37-2.56 303.72-2.94 304.08-3.32 304.91-3.32L304.91-3.32 308.74-3.32 308.74-19.24 305.64-19.24Q304.81-19.24 304.45-19.62 304.1-20 304.1-20.9L304.1-20.9Q304.1-21.8 304.45-22.18 304.81-22.56 305.64-22.56L305.64-22.56 310.62-22.56Q311.45-22.56 311.8-22.18 312.16-21.8 312.16-20.9L312.16-20.9 312.16-15.97Q313.33-18.12 314.99-19.73 316.65-21.34 318.53-22.22 320.41-23.1 322.24-23.1L322.24-23.1ZM340.94-29.52Q341.94-29.52 342.36-29.15 342.77-28.78 342.77-27.93L342.77-27.93 342.77-20.61 352.8-20.61Q353.63-20.61 353.99-20.23 354.34-19.85 354.34-18.95L354.34-18.95Q354.34-18.04 353.99-17.66 353.63-17.29 352.8-17.29L352.8-17.29 342.77-17.29 342.77-8.4Q342.77-5.62 343.73-4.32 344.7-3.03 347.09-3.03L347.09-3.03Q348.73-3.03 350.53-3.69 352.34-4.35 354.03-5.44L354.03-5.44Q354.37-5.69 354.78-5.69L354.78-5.69Q355.61-5.69 356.2-4.57L356.2-4.57Q356.52-3.93 356.52-3.47L356.52-3.47Q356.52-2.69 355.71-2.2L355.71-2.2Q353.81-1 351.46-0.23 349.12 0.54 347.09 0.54L347.09 0.54Q342.94 0.54 341.02-1.62 339.11-3.78 339.11-8.08L339.11-8.08 339.11-17.29 334.15-17.29Q333.32-17.29 332.97-17.66 332.61-18.04 332.61-18.95L332.61-18.95Q332.61-19.85 332.97-20.23 333.32-20.61 334.15-20.61L334.15-20.61 339.11-20.61 339.11-27.93Q339.11-28.78 339.52-29.15 339.94-29.52 340.94-29.52L340.94-29.52ZM374.95-23.1Q378.49-23.1 380.99-21.67 383.49-20.24 384.83-17.71 386.18-15.19 386.37-11.89L386.37-11.89Q386.37-11.06 386.02-10.72 385.66-10.38 384.83-10.38L384.83-10.38 367.16-10.38Q367.33-6.74 369.32-4.87 371.31-3 374.95-3L374.95-3Q377.19-3 379.39-3.58 381.59-4.15 383.25-5.1L383.25-5.1Q383.66-5.32 384-5.32L384-5.32Q384.86-5.32 385.39-4.03L385.39-4.03Q385.61-3.52 385.61-3.1L385.61-3.1Q385.61-2.12 384.54-1.59L384.54-1.59Q382.66-0.63 380.1-0.05 377.53 0.54 374.95 0.54L374.95 0.54Q371.26 0.54 368.65-0.88 366.03-2.29 364.67-4.96 363.3-7.62 363.3-11.28L363.3-11.28Q363.3-14.77 364.79-17.46 366.28-20.14 368.92-21.62 371.55-23.1 374.95-23.1L374.95-23.1ZM374.95-19.56Q371.94-19.56 369.98-18.03 368.01-16.5 367.4-13.79L367.4-13.79 382.32-13.79Q381.81-16.6 379.96-18.08 378.12-19.56 374.95-19.56L374.95-19.56ZM412.17-23.1Q414.08-23.1 415.74-22.12L415.74-22.12Q416.72-21.53 416.72-20.61L416.72-20.61Q416.72-20.17 416.5-19.58L416.5-19.58Q415.98-18.19 415.08-18.19L415.08-18.19Q414.71-18.19 414.4-18.38L414.4-18.38Q413.2-19.04 411.83-19.04L411.83-19.04Q409.64-19.04 407.41-17.52 405.19-15.99 403.76-13.45 402.34-10.91 402.34-8.06L402.34-8.06 402.34-3.32 410.56-3.32Q411.39-3.32 411.75-2.94 412.1-2.56 412.1-1.66L412.1-1.66Q412.1-0.76 411.75-0.38 411.39 0 410.56 0L410.56 0 394.84 0Q394.01 0 393.66-0.38 393.3-0.76 393.3-1.66L393.3-1.66Q393.3-2.56 393.66-2.94 394.01-3.32 394.84-3.32L394.84-3.32 398.67-3.32 398.67-19.24 395.57-19.24Q394.74-19.24 394.39-19.62 394.03-20 394.03-20.9L394.03-20.9Q394.03-21.8 394.39-22.18 394.74-22.56 395.57-22.56L395.57-22.56 400.55-22.56Q401.38-22.56 401.74-22.18 402.09-21.8 402.09-20.9L402.09-20.9 402.09-15.97Q403.26-18.12 404.92-19.73 406.58-21.34 408.46-22.22 410.34-23.1 412.17-23.1L412.17-23.1Z" opacity="1" transform="matrix(1,0,0,1,0,0)" fill="#0f172a" class="wordmark-text-0" data-fill-palette-color="primary" id="text-0"></path></svg></g></svg></g><g transform="matrix(1,0,0,1,0,35.42242563797057)"><svg viewBox="0 0 229.20383999999999 13.106070638297872" height="13.106070638297872" width="229.20383999999999"><g transform="matrix(1,0,0,1,0,0)"><svg width="229.20383999999999" viewBox="4.85 -35.95 639.12 36.550000000000004" height="13.106070638297872" data-palette-color="#0f172a"><path d="M14.4 0L4.85 0 4.85-32.95 13.75-32.95Q18.75-32.95 21.7-31.03 24.65-29.1 24.65-24.95L24.65-24.95Q24.65-22.35 23.35-20.43 22.05-18.5 19.55-17.75L19.55-17.75 19.55-17.55Q22.75-17 24.7-15.03 26.65-13.05 26.65-9.6L26.65-9.6Q26.65-7.2 25.78-5.4 24.9-3.6 23.3-2.4 21.7-1.2 19.45-0.6 17.2 0 14.4 0L14.4 0ZM7.15-31.05L7.15-18.45 12.85-18.45Q17.9-18.45 20.13-20.13 22.35-21.8 22.35-24.7L22.35-24.7Q22.35-28.2 20-29.63 17.65-31.05 13.1-31.05L13.1-31.05 7.15-31.05ZM7.15-16.55L7.15-1.9 13.8-1.9Q18.75-1.9 21.58-3.75 24.4-5.6 24.4-9.55L24.4-9.55Q24.4-13.15 21.65-14.85 18.9-16.55 13.8-16.55L13.8-16.55 7.15-16.55ZM40.4 0.6L40.4 0.6Q36.65 0.6 34.9-1.65 33.15-3.9 33.15-8.6L33.15-8.6 33.15-24 35.35-24 35.35-8.9Q35.35-5.05 36.62-3.23 37.9-1.4 40.8-1.4L40.8-1.4Q42.95-1.4 44.7-2.58 46.45-3.75 48.55-6.3L48.55-6.3 48.55-24 50.75-24 50.75 0 48.9 0 48.65-4 48.55-4Q46.8-1.9 44.85-0.65 42.9 0.6 40.4 0.6ZM62.15 0L59.95 0 59.95-24 62.15-24 62.15 0ZM61.1-29.8L61.1-29.8Q60.25-29.8 59.67-30.35 59.1-30.9 59.1-31.75L59.1-31.75Q59.1-32.7 59.67-33.23 60.25-33.75 61.1-33.75L61.1-33.75Q61.95-33.75 62.52-33.23 63.1-32.7 63.1-31.75L63.1-31.75Q63.1-30.9 62.52-30.35 61.95-29.8 61.1-29.8ZM74.34 0.6L74.34 0.6Q71.39 0.6 71.39-3.2L71.39-3.2 71.39-35.95 73.59-35.95 73.59-2.9Q73.59-2.1 73.89-1.73 74.19-1.35 74.64-1.35L74.64-1.35Q74.79-1.35 74.97-1.35 75.14-1.35 75.54-1.45L75.54-1.45 75.94 0.35Q75.59 0.45 75.24 0.53 74.89 0.6 74.34 0.6ZM91.19 0.6L91.19 0.6Q86.64 0.6 83.94-2.63 81.24-5.85 81.24-11.95L81.24-11.95Q81.24-14.85 82.09-17.2 82.94-19.55 84.42-21.2 85.89-22.85 87.82-23.73 89.74-24.6 91.89-24.6L91.89-24.6Q94.09-24.6 95.72-23.83 97.34-23.05 99.14-21.65L99.14-21.65 99.04-26.05 99.04-35.95 101.24-35.95 101.24 0 99.34 0 99.14-3.1 98.99-3.1Q97.54-1.65 95.57-0.53 93.59 0.6 91.19 0.6ZM91.49-1.35L91.49-1.35Q93.49-1.35 95.32-2.38 97.14-3.4 99.04-5.3L99.04-5.3 99.04-19.55Q97.14-21.25 95.47-21.95 93.79-22.65 92.04-22.65L92.04-22.65Q90.24-22.65 88.69-21.83 87.14-21 86.02-19.58 84.89-18.15 84.24-16.18 83.59-14.2 83.59-11.95L83.59-11.95Q83.59-9.55 84.12-7.6 84.64-5.65 85.64-4.28 86.64-2.9 88.12-2.13 89.59-1.35 91.49-1.35ZM122.99 0L120.69 0 120.69-32.95 138.64-32.95 138.64-30.95 122.99-30.95 122.99-17.85 136.24-17.85 136.24-15.85 122.99-15.85 122.99 0ZM147.98 0.6L147.98 0.6Q146.53 0.6 145.28 0.2 144.03-0.2 143.08-1 142.13-1.8 141.58-3.05 141.03-4.3 141.03-6L141.03-6Q141.03-10 144.76-12.08 148.48-14.15 156.53-15.05L156.53-15.05Q156.53-16.4 156.33-17.78 156.13-19.15 155.48-20.23 154.83-21.3 153.73-21.98 152.63-22.65 150.83-22.65L150.83-22.65Q148.43-22.65 146.43-21.7 144.43-20.75 143.18-19.85L143.18-19.85 142.18-21.5Q142.83-21.95 143.76-22.5 144.68-23.05 145.83-23.5 146.98-23.95 148.33-24.28 149.68-24.6 151.13-24.6L151.13-24.6Q153.23-24.6 154.68-23.88 156.13-23.15 157.03-21.9 157.93-20.65 158.33-18.98 158.73-17.3 158.73-15.35L158.73-15.35 158.73 0 156.83 0 156.63-3.1 156.48-3.1Q154.63-1.65 152.51-0.53 150.38 0.6 147.98 0.6ZM148.38-1.3L148.38-1.3Q150.48-1.3 152.38-2.3 154.28-3.3 156.53-5.2L156.53-5.2 156.53-13.35Q152.83-12.9 150.28-12.25 147.73-11.6 146.18-10.7 144.63-9.8 143.96-8.65 143.28-7.5 143.28-6.1L143.28-6.1Q143.28-4.8 143.68-3.9 144.08-3 144.78-2.43 145.48-1.85 146.41-1.58 147.33-1.3 148.38-1.3ZM173.08 0.6L173.08 0.6Q170.38 0.6 168.13-0.38 165.88-1.35 164.28-2.7L164.28-2.7 165.58-4.35Q167.13-3.05 168.88-2.18 170.63-1.3 173.23-1.3L173.23-1.3Q176.08-1.3 177.51-2.73 178.93-4.15 178.93-6.05L178.93-6.05Q178.93-7.15 178.41-8 177.88-8.85 177.03-9.45 176.18-10.05 175.16-10.5 174.13-10.95 173.08-11.35L173.08-11.35Q171.73-11.85 170.36-12.4 168.98-12.95 167.88-13.73 166.78-14.5 166.11-15.58 165.43-16.65 165.43-18.2L165.43-18.2Q165.43-19.5 165.93-20.68 166.43-21.85 167.43-22.73 168.43-23.6 169.86-24.1 171.28-24.6 173.18-24.6L173.18-24.6Q175.08-24.6 176.91-23.9 178.73-23.2 180.03-22.1L180.03-22.1 178.83-20.55Q177.63-21.45 176.28-22.08 174.93-22.7 173.08-22.7L173.08-22.7Q171.68-22.7 170.68-22.33 169.68-21.95 169.01-21.35 168.33-20.75 168.01-19.95 167.68-19.15 167.68-18.35L167.68-18.35Q167.68-17.3 168.16-16.57 168.63-15.85 169.43-15.3 170.23-14.75 171.26-14.33 172.28-13.9 173.33-13.5L173.33-13.5Q174.73-12.95 176.13-12.4 177.53-11.85 178.66-11.05 179.78-10.25 180.48-9.08 181.18-7.9 181.18-6.15L181.18-6.15Q181.18-4.8 180.66-3.58 180.13-2.35 179.08-1.43 178.03-0.5 176.53 0.05 175.03 0.6 173.08 0.6ZM193.08 0.6L193.08 0.6Q191.33 0.6 190.18 0.08 189.03-0.45 188.33-1.4 187.63-2.35 187.35-3.7 187.08-5.05 187.08-6.65L187.08-6.65 187.08-22.1 183.33-22.1 183.33-23.8 187.13-24 187.43-30.95 189.33-30.95 189.33-24 196.28-24 196.28-22.1 189.33-22.1 189.33-6.45Q189.33-5.3 189.5-4.38 189.68-3.45 190.13-2.78 190.58-2.1 191.35-1.73 192.13-1.35 193.38-1.35L193.38-1.35Q194.08-1.35 194.9-1.58 195.73-1.8 196.38-2.1L196.38-2.1 196.98-0.3Q195.93 0.1 194.88 0.35 193.83 0.6 193.08 0.6ZM210.68 0.6L210.68 0.6Q208.38 0.6 206.35-0.25 204.33-1.1 202.83-2.73 201.33-4.35 200.45-6.68 199.58-9 199.58-11.95L199.58-11.95Q199.58-14.9 200.45-17.25 201.33-19.6 202.8-21.23 204.28-22.85 206.15-23.73 208.03-24.6 210.03-24.6L210.03-24.6Q214.33-24.6 216.78-21.7 219.23-18.8 219.23-13.5L219.23-13.5Q219.23-13.05 219.23-12.6 219.23-12.15 219.13-11.7L219.13-11.7 201.83-11.7Q201.88-9.45 202.53-7.53 203.18-5.6 204.35-4.23 205.53-2.85 207.18-2.08 208.83-1.3 210.88-1.3L210.88-1.3Q212.83-1.3 214.4-1.88 215.98-2.45 217.33-3.45L217.33-3.45 218.23-1.75Q216.78-0.9 215.05-0.15 213.33 0.6 210.68 0.6ZM201.83-13.5L201.83-13.5 217.13-13.5Q217.13-18.15 215.23-20.43 213.33-22.7 210.08-22.7L210.08-22.7Q208.53-22.7 207.13-22.08 205.73-21.45 204.6-20.25 203.48-19.05 202.75-17.35 202.03-15.65 201.83-13.5ZM227.92 0L225.72 0 225.72-24 227.62-24 227.82-19.55 227.97-19.55Q229.17-21.8 230.9-23.2 232.62-24.6 234.77-24.6L234.77-24.6Q235.47-24.6 236.02-24.5 236.57-24.4 237.17-24.1L237.17-24.1 236.67-22.1Q236.07-22.35 235.62-22.43 235.17-22.5 234.47-22.5L234.47-22.5Q232.87-22.5 231.1-21.13 229.32-19.75 227.92-16.35L227.92-16.35 227.92 0ZM258.37 0L255.87 0 248.37-32.95 250.77-32.95 254.92-13.55Q255.47-10.85 256.04-8.18 256.62-5.5 257.17-2.8L257.17-2.8 257.37-2.8Q257.97-5.5 258.59-8.18 259.22-10.85 259.92-13.55L259.92-13.55 265.07-32.95 267.42-32.95 272.57-13.55Q273.27-10.85 273.89-8.18 274.52-5.5 275.22-2.8L275.22-2.8 275.42-2.8Q275.97-5.5 276.49-8.18 277.02-10.85 277.57-13.55L277.57-13.55 281.72-32.95 283.97-32.95 276.62 0 274.07 0 268.07-22.6Q267.62-24.55 267.17-26.33 266.72-28.1 266.32-30.05L266.32-30.05 266.12-30.05Q265.72-28.1 265.22-26.33 264.72-24.55 264.27-22.6L264.27-22.6 258.37 0ZM292.27 0L290.07 0 290.07-24 292.27-24 292.27 0ZM291.22-29.8L291.22-29.8Q290.37-29.8 289.79-30.35 289.22-30.9 289.22-31.75L289.22-31.75Q289.22-32.7 289.79-33.23 290.37-33.75 291.22-33.75L291.22-33.75Q292.07-33.75 292.64-33.23 293.22-32.7 293.22-31.75L293.22-31.75Q293.22-30.9 292.64-30.35 292.07-29.8 291.22-29.8ZM308.06 0.6L308.06 0.6Q306.31 0.6 305.16 0.08 304.01-0.45 303.31-1.4 302.61-2.35 302.34-3.7 302.06-5.05 302.06-6.65L302.06-6.65 302.06-22.1 298.31-22.1 298.31-23.8 302.11-24 302.41-30.95 304.31-30.95 304.31-24 311.26-24 311.26-22.1 304.31-22.1 304.31-6.45Q304.31-5.3 304.49-4.38 304.66-3.45 305.11-2.78 305.56-2.1 306.34-1.73 307.11-1.35 308.36-1.35L308.36-1.35Q309.06-1.35 309.89-1.58 310.71-1.8 311.36-2.1L311.36-2.1 311.96-0.3Q310.91 0.1 309.86 0.35 308.81 0.6 308.06 0.6ZM319.31 0L317.11 0 317.11-35.95 319.31-35.95 319.31-20.25Q321.21-22.15 323.16-23.38 325.11-24.6 327.61-24.6L327.61-24.6Q331.36-24.6 333.11-22.35 334.86-20.1 334.86-15.4L334.86-15.4 334.86 0 332.66 0 332.66-15.1Q332.66-18.95 331.39-20.78 330.11-22.6 327.16-22.6L327.16-22.6Q325.01-22.6 323.26-21.48 321.51-20.35 319.31-18.1L319.31-18.1 319.31 0ZM361.46 0L353.76 0 353.76-32.95 361.41-32.95Q365.21-32.95 368.03-31.8 370.86-30.65 372.71-28.5 374.56-26.35 375.46-23.35 376.36-20.35 376.36-16.6L376.36-16.6Q376.36-12.85 375.46-9.78 374.56-6.7 372.71-4.53 370.86-2.35 368.06-1.18 365.26 0 361.46 0L361.46 0ZM356.06-31L356.06-1.95 361.16-1.95Q364.51-1.95 366.93-3.03 369.36-4.1 370.91-6.05 372.46-8 373.21-10.68 373.96-13.35 373.96-16.6L373.96-16.6Q373.96-19.8 373.21-22.45 372.46-25.1 370.91-27 369.36-28.9 366.93-29.95 364.51-31 361.16-31L361.16-31 356.06-31ZM393.5 0L383.95 0 383.95-32.95 392.85-32.95Q397.85-32.95 400.8-31.03 403.75-29.1 403.75-24.95L403.75-24.95Q403.75-22.35 402.45-20.43 401.15-18.5 398.65-17.75L398.65-17.75 398.65-17.55Q401.85-17 403.8-15.03 405.75-13.05 405.75-9.6L405.75-9.6Q405.75-7.2 404.88-5.4 404-3.6 402.4-2.4 400.8-1.2 398.55-0.6 396.3 0 393.5 0L393.5 0ZM386.25-31.05L386.25-18.45 391.95-18.45Q397-18.45 399.23-20.13 401.45-21.8 401.45-24.7L401.45-24.7Q401.45-28.2 399.1-29.63 396.75-31.05 392.2-31.05L392.2-31.05 386.25-31.05ZM386.25-16.55L386.25-1.9 392.9-1.9Q397.85-1.9 400.68-3.75 403.5-5.6 403.5-9.55L403.5-9.55Q403.5-13.15 400.75-14.85 398-16.55 392.9-16.55L392.9-16.55 386.25-16.55ZM425.05 0L422.85 0 422.85-32.95 425.25-32.95 439.15-9.7 442.85-3.15 443.05-3.15Q442.95-5.55 442.85-7.95 442.75-10.35 442.75-12.75L442.75-12.75 442.75-32.95 444.95-32.95 444.95 0 442.55 0 428.65-23.25 424.95-29.8 424.75-29.8Q424.85-27.4 424.95-25.13 425.05-22.85 425.05-20.45L425.05-20.45 425.05 0ZM463.5 0.6L463.5 0.6Q461.19 0.6 459.17-0.25 457.15-1.1 455.65-2.73 454.15-4.35 453.27-6.68 452.4-9 452.4-11.95L452.4-11.95Q452.4-14.9 453.27-17.25 454.15-19.6 455.62-21.23 457.1-22.85 458.97-23.73 460.85-24.6 462.85-24.6L462.85-24.6Q467.15-24.6 469.6-21.7 472.05-18.8 472.05-13.5L472.05-13.5Q472.05-13.05 472.05-12.6 472.05-12.15 471.94-11.7L471.94-11.7 454.65-11.7Q454.69-9.45 455.35-7.53 456-5.6 457.17-4.23 458.35-2.85 460-2.08 461.65-1.3 463.69-1.3L463.69-1.3Q465.65-1.3 467.22-1.88 468.8-2.45 470.15-3.45L470.15-3.45 471.05-1.75Q469.6-0.9 467.87-0.15 466.15 0.6 463.5 0.6ZM454.65-13.5L454.65-13.5 469.94-13.5Q469.94-18.15 468.05-20.43 466.15-22.7 462.9-22.7L462.9-22.7Q461.35-22.7 459.94-22.08 458.55-21.45 457.42-20.25 456.3-19.05 455.57-17.35 454.85-15.65 454.65-13.5ZM476.99 0L474.64 0 482.79-12.55 475.29-24 477.74-24 481.64-17.9Q482.24-16.9 482.87-15.93 483.49-14.95 484.19-13.95L484.19-13.95 484.39-13.95Q485.04-14.95 485.62-15.93 486.19-16.9 486.84-17.9L486.84-17.9 490.59-24 492.89-24 485.44-12.35 493.59 0 491.14 0 486.89-6.55Q486.19-7.7 485.49-8.8 484.79-9.9 484.04-10.95L484.04-10.95 483.84-10.95Q483.14-9.9 482.47-8.8 481.79-7.7 481.09-6.55L481.09-6.55 476.99 0ZM504.39 0.6L504.39 0.6Q502.64 0.6 501.49 0.08 500.34-0.45 499.64-1.4 498.94-2.35 498.67-3.7 498.39-5.05 498.39-6.65L498.39-6.65 498.39-22.1 494.64-22.1 494.64-23.8 498.44-24 498.74-30.95 500.64-30.95 500.64-24 507.59-24 507.59-22.1 500.64-22.1 500.64-6.45Q500.64-5.3 500.81-4.38 500.99-3.45 501.44-2.78 501.89-2.1 502.67-1.73 503.44-1.35 504.69-1.35L504.69-1.35Q505.39-1.35 506.22-1.58 507.04-1.8 507.69-2.1L507.69-2.1 508.29-0.3Q507.24 0.1 506.19 0.35 505.14 0.6 504.39 0.6ZM522.29 0.6L522.29 0.6Q518.69 0.6 515.89-0.78 513.09-2.15 511.14-4.35L511.14-4.35 512.64-5.95Q514.44-3.9 516.94-2.7 519.44-1.5 522.29-1.5L522.29-1.5Q526.09-1.5 528.29-3.33 530.49-5.15 530.49-8.1L530.49-8.1Q530.49-9.65 530.01-10.73 529.54-11.8 528.74-12.58 527.94-13.35 526.86-13.9 525.79-14.45 524.59-15L524.59-15 519.59-17.25Q518.54-17.7 517.34-18.35 516.14-19 515.16-19.98 514.19-20.95 513.54-22.28 512.89-23.6 512.89-25.45L512.89-25.45Q512.89-27.25 513.61-28.73 514.34-30.2 515.61-31.28 516.89-32.35 518.66-32.95 520.44-33.55 522.49-33.55L522.49-33.55Q525.49-33.55 527.81-32.38 530.14-31.2 531.64-29.6L531.64-29.6 530.34-28.1Q528.89-29.6 526.94-30.53 524.99-31.45 522.49-31.45L522.49-31.45Q519.19-31.45 517.19-29.85 515.19-28.25 515.19-25.55L515.19-25.55Q515.19-24.1 515.74-23.1 516.29-22.1 517.14-21.38 517.99-20.65 518.99-20.13 519.99-19.6 520.89-19.2L520.89-19.2 525.89-17Q527.29-16.4 528.54-15.65 529.79-14.9 530.74-13.9 531.69-12.9 532.26-11.53 532.84-10.15 532.84-8.25L532.84-8.25Q532.84-6.35 532.09-4.73 531.34-3.1 529.96-1.93 528.59-0.75 526.64-0.08 524.69 0.6 522.29 0.6ZM544.99 0.6L544.99 0.6Q543.24 0.6 542.09 0.08 540.94-0.45 540.24-1.4 539.54-2.35 539.26-3.7 538.99-5.05 538.99-6.65L538.99-6.65 538.99-22.1 535.24-22.1 535.24-23.8 539.04-24 539.34-30.95 541.24-30.95 541.24-24 548.19-24 548.19-22.1 541.24-22.1 541.24-6.45Q541.24-5.3 541.41-4.38 541.59-3.45 542.04-2.78 542.49-2.1 543.26-1.73 544.04-1.35 545.29-1.35L545.29-1.35Q545.99-1.35 546.81-1.58 547.63-1.8 548.29-2.1L548.29-2.1 548.88-0.3Q547.84 0.1 546.79 0.35 545.74 0.6 544.99 0.6ZM558.18 0.6L558.18 0.6Q556.73 0.6 555.48 0.2 554.23-0.2 553.28-1 552.33-1.8 551.78-3.05 551.23-4.3 551.23-6L551.23-6Q551.23-10 554.96-12.08 558.68-14.15 566.73-15.05L566.73-15.05Q566.73-16.4 566.53-17.78 566.33-19.15 565.68-20.23 565.03-21.3 563.93-21.98 562.83-22.65 561.03-22.65L561.03-22.65Q558.63-22.65 556.63-21.7 554.63-20.75 553.38-19.85L553.38-19.85 552.38-21.5Q553.03-21.95 553.96-22.5 554.88-23.05 556.03-23.5 557.18-23.95 558.53-24.28 559.88-24.6 561.33-24.6L561.33-24.6Q563.43-24.6 564.88-23.88 566.33-23.15 567.23-21.9 568.13-20.65 568.53-18.98 568.93-17.3 568.93-15.35L568.93-15.35 568.93 0 567.03 0 566.83-3.1 566.68-3.1Q564.83-1.65 562.71-0.53 560.58 0.6 558.18 0.6ZM558.58-1.3L558.58-1.3Q560.68-1.3 562.58-2.3 564.48-3.3 566.73-5.2L566.73-5.2 566.73-13.35Q563.03-12.9 560.48-12.25 557.93-11.6 556.38-10.7 554.83-9.8 554.16-8.65 553.48-7.5 553.48-6.1L553.48-6.1Q553.48-4.8 553.88-3.9 554.28-3 554.98-2.43 555.68-1.85 556.61-1.58 557.53-1.3 558.58-1.3ZM579.68 0L577.48 0 577.48-24 579.38-24 579.58-19.55 579.73-19.55Q580.93-21.8 582.65-23.2 584.38-24.6 586.53-24.6L586.53-24.6Q587.23-24.6 587.78-24.5 588.33-24.4 588.93-24.1L588.93-24.1 588.43-22.1Q587.83-22.35 587.38-22.43 586.93-22.5 586.23-22.5L586.23-22.5Q584.63-22.5 582.85-21.13 581.08-19.75 579.68-16.35L579.68-16.35 579.68 0ZM599.88 0.6L599.88 0.6Q598.13 0.6 596.98 0.08 595.83-0.45 595.13-1.4 594.43-2.35 594.15-3.7 593.88-5.05 593.88-6.65L593.88-6.65 593.88-22.1 590.13-22.1 590.13-23.8 593.93-24 594.23-30.95 596.13-30.95 596.13-24 603.08-24 603.08-22.1 596.13-22.1 596.13-6.45Q596.13-5.3 596.3-4.38 596.48-3.45 596.93-2.78 597.38-2.1 598.15-1.73 598.93-1.35 600.18-1.35L600.18-1.35Q600.88-1.35 601.7-1.58 602.53-1.8 603.18-2.1L603.18-2.1 603.78-0.3Q602.73 0.1 601.68 0.35 600.63 0.6 599.88 0.6ZM617.47 0.6L617.47 0.6Q615.17 0.6 613.15-0.25 611.12-1.1 609.62-2.73 608.12-4.35 607.25-6.68 606.37-9 606.37-11.95L606.37-11.95Q606.37-14.9 607.25-17.25 608.12-19.6 609.6-21.23 611.07-22.85 612.95-23.73 614.82-24.6 616.82-24.6L616.82-24.6Q621.12-24.6 623.57-21.7 626.02-18.8 626.02-13.5L626.02-13.5Q626.02-13.05 626.02-12.6 626.02-12.15 625.92-11.7L625.92-11.7 608.62-11.7Q608.67-9.45 609.32-7.53 609.97-5.6 611.15-4.23 612.32-2.85 613.97-2.08 615.62-1.3 617.67-1.3L617.67-1.3Q619.62-1.3 621.2-1.88 622.77-2.45 624.12-3.45L624.12-3.45 625.02-1.75Q623.57-0.9 621.85-0.15 620.12 0.6 617.47 0.6ZM608.62-13.5L608.62-13.5 623.92-13.5Q623.92-18.15 622.02-20.43 620.12-22.7 616.87-22.7L616.87-22.7Q615.32-22.7 613.92-22.08 612.52-21.45 611.4-20.25 610.27-19.05 609.55-17.35 608.82-15.65 608.62-13.5ZM634.72 0L632.52 0 632.52-24 634.42-24 634.62-19.55 634.77-19.55Q635.97-21.8 637.7-23.2 639.42-24.6 641.57-24.6L641.57-24.6Q642.27-24.6 642.82-24.5 643.37-24.4 643.97-24.1L643.97-24.1 643.47-22.1Q642.87-22.35 642.42-22.43 641.97-22.5 641.27-22.5L641.27-22.5Q639.67-22.5 637.9-21.13 636.12-19.75 634.72-16.35L634.72-16.35 634.72 0Z" opacity="1" transform="matrix(1,0,0,1,0,0)" fill="#0f172a" class="slogan-text-1" data-fill-palette-color="secondary" id="text-1"></path></svg></g></svg></g></svg></g></svg></g><g transform="matrix(1,0,0,1,0,0.12132124069066919)"><svg viewBox="0 0 46.33064067991624 48.52849627626844" height="48.52849627626844" width="46.33064067991624"><g><svg version="1.0" xmlns="http://www.w3.org/2000/svg" xmlns:xlink="http://www.w3.org/1999/xlink" x="0" y="0" viewBox="0 0 95.471 100" enable-background="new 0 0 95.471 100" xml:space="preserve" id="icon-0" width="46.33064067991624" height="48.52849627626844" class="icon-icon-0" data-fill-palette-color="accent"><path d="M47.735 0C47.652 2.825 45.997 13.412 27.936 30.934 10.554 47.797 2.439 49.824 0 50 2.439 50.178 10.554 52.204 27.936 69.066 45.997 86.589 47.652 97.177 47.735 100 47.818 97.177 49.474 86.589 67.533 69.066 84.917 52.204 93.031 50.178 95.471 50 93.032 49.824 84.917 47.797 67.533 30.934 49.475 13.412 47.819 2.825 47.735 0" fill="#0f172a" data-fill-palette-color="accent"></path></svg></g></svg></g></svg></g><defs></defs></svg><rect width="395.52" height="42.1209905315065" fill="none" stroke="none" visibility="hidden"></rect></g></svg></g></svg>