<svg xmlns="http://www.w3.org/2000/svg" version="1.1" xmlns:xlink="http://www.w3.org/1999/xlink" xmlns:svgjs="http://svgjs.dev/svgjs" width="2000" height="237" viewBox="0 0 2000 237"><g transform="matrix(1,0,0,1,-1.2121212121212466,0.9165851499858064)"><svg viewBox="0 0 396 47" data-background-color="#000000" preserveAspectRatio="xMidYMid meet" height="237" width="2000" xmlns="http://www.w3.org/2000/svg" xmlns:xlink="http://www.w3.org/1999/xlink"><g id="tight-bounds" transform="matrix(1,0,0,1,0.2400000000000091,-0.18177005084106668)"><svg viewBox="0 0 395.52 47.36354010168211" height="47.36354010168211" width="395.52"><g><svg viewBox="0 0 475.65680693765086 56.959926805293016" height="47.36354010168211" width="395.52"><g></g><g transform="matrix(1,0,0,1,0,7.872175122873347)"><svg viewBox="0 0 395.52 41.21557655954632" height="41.21557655954632" width="395.52"><g id="textblocktransform"><svg viewBox="0 0 395.52 41.21557655954632" height="41.21557655954632" width="395.52" id="textblock"><g><svg viewBox="0 0 395.52 41.21557655954632" height="41.21557655954632" width="395.52"><g transform="matrix(1,0,0,1,0,0)"><svg width="395.52" viewBox="3.78 -32.5 315.16 33.08" height="41.21557655954632" data-palette-color="url(#2579f983-f04a-4de9-a95a-c50284d2ec77)"><g class="wordmark-text-0" data-fill-palette-color="primary" id="text-0"></g></svg></g></svg></g></svg></g></svg></g><g transform="matrix(1,0,0,1,418.6968801323578,0)"><svg viewBox="0 0 56.959926805293016 56.959926805293016" height="56.959926805293016" width="56.959926805293016"><g><svg xmlns="http://www.w3.org/2000/svg" xmlns:xlink="http://www.w3.org/1999/xlink" version="1.1" x="0" y="0" viewBox="10.828427092500704 10.828427092500704 78.34314581499859 78.34314581499859" style="enable-background:new 0 0 100 100;" xml:space="preserve" height="56.959926805293016" width="56.959926805293016" class="icon-icon-0" data-fill-palette-color="accent" id="icon-0"></svg></g></svg></g></svg></g><defs></defs><mask id="384690ed-c196-446d-a4ed-f48b87fe93a2"><g id="SvgjsG7737"><svg viewBox="0 0 395.52 47.36354010168211" height="47.36354010168211" width="395.52"><g><svg viewBox="0 0 475.65680693765086 56.959926805293016" height="47.36354010168211" width="395.52"><g><rect width="3.716863228614897" height="41.42165444234405" x="405.25000845187145" y="7.769136181474483" fill="white" opacity="1" stroke-width="0" stroke="transparent" fill-opacity="1" class="rect-yte-0" rx="1%" id="SvgjsRect7736" data-palette-color="url(#2579f983-f04a-4de9-a95a-c50284d2ec77)"></rect></g><g transform="matrix(1,0,0,1,0,7.872175122873347)"><svg viewBox="0 0 395.52 41.21557655954632" height="41.21557655954632" width="395.52"><g id="SvgjsG7735"><svg viewBox="0 0 395.52 41.21557655954632" height="41.21557655954632" width="395.52" id="SvgjsSvg7734"><g><svg viewBox="0 0 395.52 41.21557655954632" height="41.21557655954632" width="395.52"><g transform="matrix(1,0,0,1,0,0)"><svg width="395.52" viewBox="3.78 -32.5 315.16 33.08" height="41.21557655954632" data-palette-color="url(#2579f983-f04a-4de9-a95a-c50284d2ec77)"><g class="wordmark-text-0" data-fill-palette-color="primary" id="SvgjsG7733"><path d="M14.48 0L6.58 0 6.58-3.5 14.33-3.5Q18.57-3.5 20.71-5.81 22.85-8.13 22.85-12.43L22.85-12.43 22.85-19.55Q22.85-23.88 20.71-26.18 18.57-28.48 14.33-28.48L14.33-28.48 6.55-28.48 6.55-31.95 14.48-31.95Q20.68-31.95 23.85-28.76 27.03-25.58 27.03-19.58L27.03-19.58 27.03-12.4Q27.03-6.43 23.85-3.21 20.68 0 14.48 0L14.48 0ZM7.88 0L3.78 0 3.78-31.95 7.88-31.95 7.88 0ZM46.62 0L36.17 0 36.17-3.43 46.22-3.43Q49.47-3.43 50.84-4.81 52.2-6.2 52.2-8.65L52.2-8.65 52.2-9.55Q52.2-12.05 50.81-13.43 49.42-14.8 45.97-14.8L45.97-14.8 36.2-14.8 36.2-18.07 45.92-18.07Q49-18.07 50.31-19.41 51.62-20.75 51.62-23.13L51.62-23.13 51.62-23.58Q51.62-25.93 50.36-27.24 49.1-28.55 45.9-28.55L45.9-28.55 36.1-28.55 36.1-31.95 46.27-31.95Q51.37-31.95 53.57-29.93 55.77-27.9 55.77-24.23L55.77-24.23 55.77-23.73Q55.77-20.8 54.37-19.13 52.97-17.45 50.02-17.13L50.02-17.13 50-16.98Q53.37-16.48 54.9-14.63 56.42-12.78 56.42-9.47L56.42-9.47 56.42-8.45Q56.42-4.48 54.12-2.24 51.82 0 46.62 0L46.62 0ZM37.45 0L33.35 0 33.35-31.95 37.45-31.95 37.45 0Z" fill="white"></path><path d="M70.72-31.95L77.02-31.95 89.99-4.45 90.29-4.45 90.12-18.4 90.12-31.95 94.17-31.95 94.17 0 88.02 0 74.89-27.73 74.59-27.73 74.77-13.13 74.77 0 70.72 0 70.72-31.95ZM111.49 0.55L111.49 0.55Q105.92 0.55 103.09-2.18 100.27-4.9 100.27-9.98L100.27-9.98 100.27-14.33Q100.27-19.48 102.89-22.26 105.52-25.05 110.57-25.05L110.57-25.05Q113.97-25.05 116.24-23.79 118.52-22.53 119.67-20.2 120.82-17.88 120.82-14.65L120.82-14.65 120.82-13.75Q120.82-12.95 120.75-12.15 120.69-11.35 120.59-10.58L120.59-10.58 116.87-10.58Q116.92-11.78 116.93-12.85 116.94-13.93 116.94-14.83L116.94-14.83Q116.94-17.05 116.23-18.59 115.51-20.13 114.1-20.94 112.69-21.75 110.57-21.75L110.57-21.75Q107.42-21.75 105.84-19.93 104.27-18.1 104.27-14.7L104.27-14.7 104.27-12.38 104.29-11.88 104.29-9.55Q104.29-8.03 104.74-6.8 105.19-5.58 106.15-4.69 107.12-3.8 108.6-3.34 110.09-2.88 112.14-2.88L112.14-2.88Q114.51-2.88 116.57-3.5 118.62-4.13 120.42-5.2L120.42-5.2 120.04-1.7Q118.42-0.68 116.26-0.06 114.12 0.55 111.49 0.55ZM119.74-10.58L102.39-10.58 102.39-13.63 119.74-13.63 119.74-10.58ZM128.61 0L124.19 0 132.19-13.28 132.19-12.13 124.34-24.4 128.79-24.4 134.94-14.48 135.29-14.48 141.41-24.4 145.86-24.4 138.01-12.13 138.01-13.28 146.01 0 141.59 0 135.29-10.6 134.94-10.6 128.61 0ZM159.46 0.5L159.46 0.5Q156.64 0.5 154.91-0.35 153.19-1.2 152.41-2.93 151.64-4.65 151.64-7.23L151.64-7.23 151.64-22.63 155.64-22.63 155.64-7.7Q155.64-5.3 156.74-4.16 157.84-3.03 160.44-3.03L160.44-3.03Q161.91-3.03 163.27-3.35 164.64-3.68 165.84-4.28L165.84-4.28 165.46-0.8Q164.29-0.2 162.71 0.15 161.14 0.5 159.46 0.5ZM165.21-20.8L147.64-20.8 147.64-24.05 165.59-24.05 165.21-20.8ZM155.54-23.65L151.66-23.65 151.64-30.5 155.71-31.03 155.54-23.65ZM179.73 0.58L179.73 0.58Q177.43 0.58 175.52 0.2 173.61-0.18 172.11-0.73 170.61-1.28 169.61-1.83L169.61-1.83 169.18-5.95Q171.11-4.8 173.72-3.94 176.33-3.08 179.41-3.08L179.41-3.08Q183.11-3.08 184.88-4.39 186.66-5.7 186.66-8.33L186.66-8.33 186.66-8.72Q186.66-10.45 185.96-11.55 185.26-12.65 183.6-13.4 181.93-14.15 179.08-14.8L179.08-14.8Q175.48-15.65 173.32-16.81 171.16-17.98 170.2-19.73 169.23-21.48 169.23-24.08L169.23-24.08 169.23-24.3Q169.23-28.23 171.81-30.36 174.38-32.5 179.61-32.5L179.61-32.5Q183.03-32.5 185.45-31.8 187.86-31.1 189.38-30.25L189.38-30.25 189.76-26.45Q187.98-27.5 185.62-28.24 183.26-28.98 180.21-28.98L180.21-28.98Q177.78-28.98 176.28-28.4 174.78-27.83 174.11-26.75 173.43-25.68 173.43-24.15L173.43-24.15 173.43-24.05Q173.43-22.5 174.1-21.4 174.76-20.3 176.42-19.5 178.08-18.7 181.16-17.95L181.16-17.95Q184.68-17.13 186.81-16.05 188.93-14.98 189.9-13.25 190.86-11.53 190.86-8.75L190.86-8.75 190.86-8.22Q190.86-3.9 188.07-1.66 185.28 0.58 179.73 0.58ZM205.28 0.5L205.28 0.5Q202.46 0.5 200.73-0.35 199.01-1.2 198.23-2.93 197.46-4.65 197.46-7.23L197.46-7.23 197.46-22.63 201.46-22.63 201.46-7.7Q201.46-5.3 202.56-4.16 203.66-3.03 206.26-3.03L206.26-3.03Q207.73-3.03 209.09-3.35 210.46-3.68 211.66-4.28L211.66-4.28 211.28-0.8Q210.11-0.2 208.53 0.15 206.96 0.5 205.28 0.5ZM211.03-20.8L193.46-20.8 193.46-24.05 211.41-24.05 211.03-20.8ZM201.36-23.65L197.48-23.65 197.46-30.5 201.53-31.03 201.36-23.65ZM234.68 0L230.65 0 230.83-5.93 230.68-6.55 230.68-14.33 230.7-15.75Q230.7-18.73 229.19-20.15 227.68-21.58 224.4-21.58L224.4-21.58Q221.78-21.58 219.59-20.83 217.4-20.08 215.7-19.07L215.7-19.07 216.08-22.53Q217.03-23.1 218.34-23.66 219.65-24.23 221.34-24.6 223.03-24.98 225.05-24.98L225.05-24.98Q227.68-24.98 229.52-24.34 231.35-23.7 232.49-22.5 233.63-21.3 234.15-19.6 234.68-17.9 234.68-15.8L234.68-15.8 234.68 0ZM222.25 0.53L222.25 0.53Q218.63 0.53 216.69-1.24 214.75-3 214.75-6.28L214.75-6.28 214.75-7Q214.75-10.38 216.84-12.04 218.93-13.7 223.48-14.35L223.48-14.35 231.2-15.45 231.43-12.5 223.98-11.43Q221.18-11.03 219.98-10.06 218.78-9.1 218.78-7.23L218.78-7.23 218.78-6.83Q218.78-4.9 219.97-3.88 221.15-2.85 223.53-2.85L223.53-2.85Q225.63-2.85 227.13-3.58 228.63-4.3 229.55-5.53 230.48-6.75 230.8-8.25L230.8-8.25 231.43-5.5 230.65-5.5Q230.3-3.9 229.34-2.53 228.38-1.15 226.65-0.31 224.93 0.53 222.25 0.53ZM244.73-14.93L244.73-14.93 243.8-18.05 244.8-18.1Q245.6-21.2 247.55-22.99 249.5-24.78 252.73-24.78L252.73-24.78Q253.53-24.78 254.16-24.65 254.8-24.53 255.3-24.35L255.3-24.35 255.55-20.43Q254.93-20.63 254.16-20.75 253.4-20.88 252.48-20.88L252.48-20.88Q249.73-20.88 247.69-19.35 245.65-17.82 244.73-14.93ZM244.93 0L240.88 0 240.88-24.4 244.83-24.4 244.63-17.2 244.93-16.9 244.93 0ZM268.4 0.5L268.4 0.5Q265.57 0.5 263.85-0.35 262.12-1.2 261.35-2.93 260.57-4.65 260.57-7.23L260.57-7.23 260.57-22.63 264.57-22.63 264.57-7.7Q264.57-5.3 265.67-4.16 266.77-3.03 269.37-3.03L269.37-3.03Q270.85-3.03 272.21-3.35 273.57-3.68 274.77-4.28L274.77-4.28 274.4-0.8Q273.22-0.2 271.65 0.15 270.07 0.5 268.4 0.5ZM274.15-20.8L256.57-20.8 256.57-24.05 274.52-24.05 274.15-20.8ZM264.47-23.65L260.6-23.65 260.57-30.5 264.65-31.03 264.47-23.65ZM289.55 0.55L289.55 0.55Q283.97 0.55 281.15-2.18 278.32-4.9 278.32-9.98L278.32-9.98 278.32-14.33Q278.32-19.48 280.95-22.26 283.57-25.05 288.62-25.05L288.62-25.05Q292.02-25.05 294.3-23.79 296.57-22.53 297.72-20.2 298.87-17.88 298.87-14.65L298.87-14.65 298.87-13.75Q298.87-12.95 298.81-12.15 298.75-11.35 298.65-10.58L298.65-10.58 294.92-10.58Q294.97-11.78 294.98-12.85 295-13.93 295-14.83L295-14.83Q295-17.05 294.28-18.59 293.57-20.13 292.16-20.94 290.75-21.75 288.62-21.75L288.62-21.75Q285.47-21.75 283.9-19.93 282.32-18.1 282.32-14.7L282.32-14.7 282.32-12.38 282.35-11.88 282.35-9.55Q282.35-8.03 282.8-6.8 283.25-5.58 284.21-4.69 285.17-3.8 286.66-3.34 288.15-2.88 290.2-2.88L290.2-2.88Q292.57-2.88 294.62-3.5 296.67-4.13 298.47-5.2L298.47-5.2 298.1-1.7Q296.47-0.68 294.32-0.06 292.17 0.55 289.55 0.55ZM297.8-10.58L280.45-10.58 280.45-13.63 297.8-13.63 297.8-10.58ZM308.12-14.93L308.12-14.93 307.19-18.05 308.19-18.1Q308.99-21.2 310.94-22.99 312.89-24.78 316.12-24.78L316.12-24.78Q316.92-24.78 317.56-24.65 318.19-24.53 318.69-24.35L318.69-24.35 318.94-20.43Q318.32-20.63 317.56-20.75 316.79-20.88 315.87-20.88L315.87-20.88Q313.12-20.88 311.08-19.35 309.04-17.82 308.12-14.93ZM308.32 0L304.27 0 304.27-24.4 308.22-24.4 308.02-17.2 308.32-16.9 308.32 0Z" fill="black"></path></g></svg></g></svg></g></svg></g></svg></g><g transform="matrix(1,0,0,1,418.6968801323578,0)"><svg viewBox="0 0 56.959926805293016 56.959926805293016" height="56.959926805293016" width="56.959926805293016"><g><svg xmlns="http://www.w3.org/2000/svg" xmlns:xlink="http://www.w3.org/1999/xlink" version="1.1" x="0" y="0" viewBox="10.828427092500704 10.828427092500704 78.34314581499859 78.34314581499859" style="enable-background:new 0 0 100 100;" xml:space="preserve" height="56.959926805293016" width="56.959926805293016" class="icon-icon-0" data-fill-palette-color="accent" id="SvgjsSvg7732"><path d="M58.586 26.414L26.414 58.586A2 2 0 0 1 23.586 58.586L11.414 46.414A2 2 0 0 1 11.414 43.586L43.586 11.414A2 2 0 0 1 46.414 11.414L58.586 23.586A2 2 0 0 1 58.586 26.414M88.586 79.586L49 40 40 49 79.586 88.586A2 2 0 0 0 82.414 88.586L88.586 82.414A2 2 0 0 0 88.586 79.586" fill="black"></path></svg></g></svg></g></svg></g><defs><mask></mask></defs></svg><rect width="395.52" height="47.36354010168211" fill="black" stroke="none" visibility="hidden"></rect></g></mask><linearGradient x1="0.054" x2="0.941" y1="0.5" y2="0.5" id="2579f983-f04a-4de9-a95a-c50284d2ec77"><stop stop-color="#8c8c8c" offset="0"></stop><stop stop-color="#e3e4e5" offset="0.498"></stop><stop stop-color="#8c8c8c" offset="1"></stop></linearGradient><rect width="395.52" height="47.36354010168211" fill="#000000" mask="url(#384690ed-c196-446d-a4ed-f48b87fe93a2)" data-fill-palette-color="primary"></rect><mask id="ccc6f9dc-9451-42f8-a71d-a97b495818e0"><g id="SvgjsG7748"><svg viewBox="0 0 395.52 47.36354010168211" height="47.36354010168211" width="395.52"><g><svg viewBox="0 0 475.65680693765086 56.959926805293016" height="47.36354010168211" width="395.52"><g></g><g transform="matrix(1,0,0,1,0,7.872175122873347)"><svg viewBox="0 0 395.52 41.21557655954632" height="41.21557655954632" width="395.52"><g id="SvgjsG7747"><svg viewBox="0 0 395.52 41.21557655954632" height="41.21557655954632" width="395.52" id="SvgjsSvg7746"><g><svg viewBox="0 0 395.52 41.21557655954632" height="41.21557655954632" width="395.52"><g transform="matrix(1,0,0,1,0,0)"><svg width="395.52" viewBox="3.78 -32.5 315.16 33.08" height="41.21557655954632" data-palette-color="url(#2579f983-f04a-4de9-a95a-c50284d2ec77)"><g class="wordmark-text-0" data-fill-palette-color="primary" id="SvgjsG7745"><path d="M70.72-31.95L77.02-31.95 89.99-4.45 90.29-4.45 90.12-18.4 90.12-31.95 94.17-31.95 94.17 0 88.02 0 74.89-27.73 74.59-27.73 74.77-13.13 74.77 0 70.72 0 70.72-31.95ZM111.49 0.55L111.49 0.55Q105.92 0.55 103.09-2.18 100.27-4.9 100.27-9.98L100.27-9.98 100.27-14.33Q100.27-19.48 102.89-22.26 105.52-25.05 110.57-25.05L110.57-25.05Q113.97-25.05 116.24-23.79 118.52-22.53 119.67-20.2 120.82-17.88 120.82-14.65L120.82-14.65 120.82-13.75Q120.82-12.95 120.75-12.15 120.69-11.35 120.59-10.58L120.59-10.58 116.87-10.58Q116.92-11.78 116.93-12.85 116.94-13.93 116.94-14.83L116.94-14.83Q116.94-17.05 116.23-18.59 115.51-20.13 114.1-20.94 112.69-21.75 110.57-21.75L110.57-21.75Q107.42-21.75 105.84-19.93 104.27-18.1 104.27-14.7L104.27-14.7 104.27-12.38 104.29-11.88 104.29-9.55Q104.29-8.03 104.74-6.8 105.19-5.58 106.15-4.69 107.12-3.8 108.6-3.34 110.09-2.88 112.14-2.88L112.14-2.88Q114.51-2.88 116.57-3.5 118.62-4.13 120.42-5.2L120.42-5.2 120.04-1.7Q118.42-0.68 116.26-0.06 114.12 0.55 111.49 0.55ZM119.74-10.58L102.39-10.58 102.39-13.63 119.74-13.63 119.74-10.58ZM128.61 0L124.19 0 132.19-13.28 132.19-12.13 124.34-24.4 128.79-24.4 134.94-14.48 135.29-14.48 141.41-24.4 145.86-24.4 138.01-12.13 138.01-13.28 146.01 0 141.59 0 135.29-10.6 134.94-10.6 128.61 0ZM159.46 0.5L159.46 0.5Q156.64 0.5 154.91-0.35 153.19-1.2 152.41-2.93 151.64-4.65 151.64-7.23L151.64-7.23 151.64-22.63 155.64-22.63 155.64-7.7Q155.64-5.3 156.74-4.16 157.84-3.03 160.44-3.03L160.44-3.03Q161.91-3.03 163.27-3.35 164.64-3.68 165.84-4.28L165.84-4.28 165.46-0.8Q164.29-0.2 162.71 0.15 161.14 0.5 159.46 0.5ZM165.21-20.8L147.64-20.8 147.64-24.05 165.59-24.05 165.21-20.8ZM155.54-23.65L151.66-23.65 151.64-30.5 155.71-31.03 155.54-23.65ZM179.73 0.58L179.73 0.58Q177.43 0.58 175.52 0.2 173.61-0.18 172.11-0.73 170.61-1.28 169.61-1.83L169.61-1.83 169.18-5.95Q171.11-4.8 173.72-3.94 176.33-3.08 179.41-3.08L179.41-3.08Q183.11-3.08 184.88-4.39 186.66-5.7 186.66-8.33L186.66-8.33 186.66-8.72Q186.66-10.45 185.96-11.55 185.26-12.65 183.6-13.4 181.93-14.15 179.08-14.8L179.08-14.8Q175.48-15.65 173.32-16.81 171.16-17.98 170.2-19.73 169.23-21.48 169.23-24.08L169.23-24.08 169.23-24.3Q169.23-28.23 171.81-30.36 174.38-32.5 179.61-32.5L179.61-32.5Q183.03-32.5 185.45-31.8 187.86-31.1 189.38-30.25L189.38-30.25 189.76-26.45Q187.98-27.5 185.62-28.24 183.26-28.98 180.21-28.98L180.21-28.98Q177.78-28.98 176.28-28.4 174.78-27.83 174.11-26.75 173.43-25.68 173.43-24.15L173.43-24.15 173.43-24.05Q173.43-22.5 174.1-21.4 174.76-20.3 176.42-19.5 178.08-18.7 181.16-17.95L181.16-17.95Q184.68-17.13 186.81-16.05 188.93-14.98 189.9-13.25 190.86-11.53 190.86-8.75L190.86-8.75 190.86-8.22Q190.86-3.9 188.07-1.66 185.28 0.58 179.73 0.58ZM205.28 0.5L205.28 0.5Q202.46 0.5 200.73-0.35 199.01-1.2 198.23-2.93 197.46-4.65 197.46-7.23L197.46-7.23 197.46-22.63 201.46-22.63 201.46-7.7Q201.46-5.3 202.56-4.16 203.66-3.03 206.26-3.03L206.26-3.03Q207.73-3.03 209.09-3.35 210.46-3.68 211.66-4.28L211.66-4.28 211.28-0.8Q210.11-0.2 208.53 0.15 206.96 0.5 205.28 0.5ZM211.03-20.8L193.46-20.8 193.46-24.05 211.41-24.05 211.03-20.8ZM201.36-23.65L197.48-23.65 197.46-30.5 201.53-31.03 201.36-23.65ZM234.68 0L230.65 0 230.83-5.93 230.68-6.55 230.68-14.33 230.7-15.75Q230.7-18.73 229.19-20.15 227.68-21.58 224.4-21.58L224.4-21.58Q221.78-21.58 219.59-20.83 217.4-20.08 215.7-19.07L215.7-19.07 216.08-22.53Q217.03-23.1 218.34-23.66 219.65-24.23 221.34-24.6 223.03-24.98 225.05-24.98L225.05-24.98Q227.68-24.98 229.52-24.34 231.35-23.7 232.49-22.5 233.63-21.3 234.15-19.6 234.68-17.9 234.68-15.8L234.68-15.8 234.68 0ZM222.25 0.53L222.25 0.53Q218.63 0.53 216.69-1.24 214.75-3 214.75-6.28L214.75-6.28 214.75-7Q214.75-10.38 216.84-12.04 218.93-13.7 223.48-14.35L223.48-14.35 231.2-15.45 231.43-12.5 223.98-11.43Q221.18-11.03 219.98-10.06 218.78-9.1 218.78-7.23L218.78-7.23 218.78-6.83Q218.78-4.9 219.97-3.88 221.15-2.85 223.53-2.85L223.53-2.85Q225.63-2.85 227.13-3.58 228.63-4.3 229.55-5.53 230.48-6.75 230.8-8.25L230.8-8.25 231.43-5.5 230.65-5.5Q230.3-3.9 229.34-2.53 228.38-1.15 226.65-0.31 224.93 0.53 222.25 0.53ZM244.73-14.93L244.73-14.93 243.8-18.05 244.8-18.1Q245.6-21.2 247.55-22.99 249.5-24.78 252.73-24.78L252.73-24.78Q253.53-24.78 254.16-24.65 254.8-24.53 255.3-24.35L255.3-24.35 255.55-20.43Q254.93-20.63 254.16-20.75 253.4-20.88 252.48-20.88L252.48-20.88Q249.73-20.88 247.69-19.35 245.65-17.82 244.73-14.93ZM244.93 0L240.88 0 240.88-24.4 244.83-24.4 244.63-17.2 244.93-16.9 244.93 0ZM268.4 0.5L268.4 0.5Q265.57 0.5 263.85-0.35 262.12-1.2 261.35-2.93 260.57-4.65 260.57-7.23L260.57-7.23 260.57-22.63 264.57-22.63 264.57-7.7Q264.57-5.3 265.67-4.16 266.77-3.03 269.37-3.03L269.37-3.03Q270.85-3.03 272.21-3.35 273.57-3.68 274.77-4.28L274.77-4.28 274.4-0.8Q273.22-0.2 271.65 0.15 270.07 0.5 268.4 0.5ZM274.15-20.8L256.57-20.8 256.57-24.05 274.52-24.05 274.15-20.8ZM264.47-23.65L260.6-23.65 260.57-30.5 264.65-31.03 264.47-23.65ZM289.55 0.55L289.55 0.55Q283.97 0.55 281.15-2.18 278.32-4.9 278.32-9.98L278.32-9.98 278.32-14.33Q278.32-19.48 280.95-22.26 283.57-25.05 288.62-25.05L288.62-25.05Q292.02-25.05 294.3-23.79 296.57-22.53 297.72-20.2 298.87-17.88 298.87-14.65L298.87-14.65 298.87-13.75Q298.87-12.95 298.81-12.15 298.75-11.35 298.65-10.58L298.65-10.58 294.92-10.58Q294.97-11.78 294.98-12.85 295-13.93 295-14.83L295-14.83Q295-17.05 294.28-18.59 293.57-20.13 292.16-20.94 290.75-21.75 288.62-21.75L288.62-21.75Q285.47-21.75 283.9-19.93 282.32-18.1 282.32-14.7L282.32-14.7 282.32-12.38 282.35-11.88 282.35-9.55Q282.35-8.03 282.8-6.8 283.25-5.58 284.21-4.69 285.17-3.8 286.66-3.34 288.15-2.88 290.2-2.88L290.2-2.88Q292.57-2.88 294.62-3.5 296.67-4.13 298.47-5.2L298.47-5.2 298.1-1.7Q296.47-0.68 294.32-0.06 292.17 0.55 289.55 0.55ZM297.8-10.58L280.45-10.58 280.45-13.63 297.8-13.63 297.8-10.58ZM308.12-14.93L308.12-14.93 307.19-18.05 308.19-18.1Q308.99-21.2 310.94-22.99 312.89-24.78 316.12-24.78L316.12-24.78Q316.92-24.78 317.56-24.65 318.19-24.53 318.69-24.35L318.69-24.35 318.94-20.43Q318.32-20.63 317.56-20.75 316.79-20.88 315.87-20.88L315.87-20.88Q313.12-20.88 311.08-19.35 309.04-17.82 308.12-14.93ZM308.32 0L304.27 0 304.27-24.4 308.22-24.4 308.02-17.2 308.32-16.9 308.32 0Z" fill="white"></path></g></svg></g></svg></g></svg></g></svg></g><g transform="matrix(1,0,0,1,418.6968801323578,0)"><svg viewBox="0 0 56.959926805293016 56.959926805293016" height="56.959926805293016" width="56.959926805293016"><g><svg xmlns="http://www.w3.org/2000/svg" xmlns:xlink="http://www.w3.org/1999/xlink" version="1.1" x="0" y="0" viewBox="10.828427092500704 10.828427092500704 78.34314581499859 78.34314581499859" style="enable-background:new 0 0 100 100;" xml:space="preserve" height="56.959926805293016" width="56.959926805293016" class="icon-icon-0" data-fill-palette-color="accent" id="SvgjsSvg7744"><path d="M58.586 26.414L26.414 58.586A2 2 0 0 1 23.586 58.586L11.414 46.414A2 2 0 0 1 11.414 43.586L43.586 11.414A2 2 0 0 1 46.414 11.414L58.586 23.586A2 2 0 0 1 58.586 26.414M88.586 79.586L49 40 40 49 79.586 88.586A2 2 0 0 0 82.414 88.586L88.586 82.414A2 2 0 0 0 88.586 79.586" fill="black"></path></svg></g></svg></g></svg></g><defs><mask></mask></defs><mask><g id="SvgjsG7743"><svg viewBox="0 0 395.52 47.36354010168211" height="47.36354010168211" width="395.52"><g><svg viewBox="0 0 475.65680693765086 56.959926805293016" height="47.36354010168211" width="395.52"><g><rect width="3.716863228614897" height="41.42165444234405" x="405.25000845187145" y="7.769136181474483" fill="black" opacity="1" stroke-width="0" stroke="transparent" fill-opacity="1" class="rect-yte-0" rx="1%" id="SvgjsRect7742" data-palette-color="url(#2579f983-f04a-4de9-a95a-c50284d2ec77)"></rect></g><g transform="matrix(1,0,0,1,0,7.872175122873347)"><svg viewBox="0 0 395.52 41.21557655954632" height="41.21557655954632" width="395.52"><g id="SvgjsG7741"><svg viewBox="0 0 395.52 41.21557655954632" height="41.21557655954632" width="395.52" id="SvgjsSvg7740"><g><svg viewBox="0 0 395.52 41.21557655954632" height="41.21557655954632" width="395.52"><g transform="matrix(1,0,0,1,0,0)"><svg width="395.52" viewBox="3.78 -32.5 315.16 33.08" height="41.21557655954632" data-palette-color="url(#2579f983-f04a-4de9-a95a-c50284d2ec77)"><g class="wordmark-text-0" data-fill-palette-color="primary" id="SvgjsG7739"><path d="M14.48 0L6.58 0 6.58-3.5 14.33-3.5Q18.57-3.5 20.71-5.81 22.85-8.13 22.85-12.43L22.85-12.43 22.85-19.55Q22.85-23.88 20.71-26.18 18.57-28.48 14.33-28.48L14.33-28.48 6.55-28.48 6.55-31.95 14.48-31.95Q20.68-31.95 23.85-28.76 27.03-25.58 27.03-19.58L27.03-19.58 27.03-12.4Q27.03-6.43 23.85-3.21 20.68 0 14.48 0L14.48 0ZM7.88 0L3.78 0 3.78-31.95 7.88-31.95 7.88 0ZM46.62 0L36.17 0 36.17-3.43 46.22-3.43Q49.47-3.43 50.84-4.81 52.2-6.2 52.2-8.65L52.2-8.65 52.2-9.55Q52.2-12.05 50.81-13.43 49.42-14.8 45.97-14.8L45.97-14.8 36.2-14.8 36.2-18.07 45.92-18.07Q49-18.07 50.31-19.41 51.62-20.75 51.62-23.13L51.62-23.13 51.62-23.58Q51.62-25.93 50.36-27.24 49.1-28.55 45.9-28.55L45.9-28.55 36.1-28.55 36.1-31.95 46.27-31.95Q51.37-31.95 53.57-29.93 55.77-27.9 55.77-24.23L55.77-24.23 55.77-23.73Q55.77-20.8 54.37-19.13 52.97-17.45 50.02-17.13L50.02-17.13 50-16.98Q53.37-16.48 54.9-14.63 56.42-12.78 56.42-9.47L56.42-9.47 56.42-8.45Q56.42-4.48 54.12-2.24 51.82 0 46.62 0L46.62 0ZM37.45 0L33.35 0 33.35-31.95 37.45-31.95 37.45 0Z" fill="black"></path><path d="M70.72-31.95L77.02-31.95 89.99-4.45 90.29-4.45 90.12-18.4 90.12-31.95 94.17-31.95 94.17 0 88.02 0 74.89-27.73 74.59-27.73 74.77-13.13 74.77 0 70.72 0 70.72-31.95ZM111.49 0.55L111.49 0.55Q105.92 0.55 103.09-2.18 100.27-4.9 100.27-9.98L100.27-9.98 100.27-14.33Q100.27-19.48 102.89-22.26 105.52-25.05 110.57-25.05L110.57-25.05Q113.97-25.05 116.24-23.79 118.52-22.53 119.67-20.2 120.82-17.88 120.82-14.65L120.82-14.65 120.82-13.75Q120.82-12.95 120.75-12.15 120.69-11.35 120.59-10.58L120.59-10.58 116.87-10.58Q116.92-11.78 116.93-12.85 116.94-13.93 116.94-14.83L116.94-14.83Q116.94-17.05 116.23-18.59 115.51-20.13 114.1-20.94 112.69-21.75 110.57-21.75L110.57-21.75Q107.42-21.75 105.84-19.93 104.27-18.1 104.27-14.7L104.27-14.7 104.27-12.38 104.29-11.88 104.29-9.55Q104.29-8.03 104.74-6.8 105.19-5.58 106.15-4.69 107.12-3.8 108.6-3.34 110.09-2.88 112.14-2.88L112.14-2.88Q114.51-2.88 116.57-3.5 118.62-4.13 120.42-5.2L120.42-5.2 120.04-1.7Q118.42-0.68 116.26-0.06 114.12 0.55 111.49 0.55ZM119.74-10.58L102.39-10.58 102.39-13.63 119.74-13.63 119.74-10.58ZM128.61 0L124.19 0 132.19-13.28 132.19-12.13 124.34-24.4 128.79-24.4 134.94-14.48 135.29-14.48 141.41-24.4 145.86-24.4 138.01-12.13 138.01-13.28 146.01 0 141.59 0 135.29-10.6 134.94-10.6 128.61 0ZM159.46 0.5L159.46 0.5Q156.64 0.5 154.91-0.35 153.19-1.2 152.41-2.93 151.64-4.65 151.64-7.23L151.64-7.23 151.64-22.63 155.64-22.63 155.64-7.7Q155.64-5.3 156.74-4.16 157.84-3.03 160.44-3.03L160.44-3.03Q161.91-3.03 163.27-3.35 164.64-3.68 165.84-4.28L165.84-4.28 165.46-0.8Q164.29-0.2 162.71 0.15 161.14 0.5 159.46 0.5ZM165.21-20.8L147.64-20.8 147.64-24.05 165.59-24.05 165.21-20.8ZM155.54-23.65L151.66-23.65 151.64-30.5 155.71-31.03 155.54-23.65ZM179.73 0.58L179.73 0.58Q177.43 0.58 175.52 0.2 173.61-0.18 172.11-0.73 170.61-1.28 169.61-1.83L169.61-1.83 169.18-5.95Q171.11-4.8 173.72-3.94 176.33-3.08 179.41-3.08L179.41-3.08Q183.11-3.08 184.88-4.39 186.66-5.7 186.66-8.33L186.66-8.33 186.66-8.72Q186.66-10.45 185.96-11.55 185.26-12.65 183.6-13.4 181.93-14.15 179.08-14.8L179.08-14.8Q175.48-15.65 173.32-16.81 171.16-17.98 170.2-19.73 169.23-21.48 169.23-24.08L169.23-24.08 169.23-24.3Q169.23-28.23 171.81-30.36 174.38-32.5 179.61-32.5L179.61-32.5Q183.03-32.5 185.45-31.8 187.86-31.1 189.38-30.25L189.38-30.25 189.76-26.45Q187.98-27.5 185.62-28.24 183.26-28.98 180.21-28.98L180.21-28.98Q177.78-28.98 176.28-28.4 174.78-27.83 174.11-26.75 173.43-25.68 173.43-24.15L173.43-24.15 173.43-24.05Q173.43-22.5 174.1-21.4 174.76-20.3 176.42-19.5 178.08-18.7 181.16-17.95L181.16-17.95Q184.68-17.13 186.81-16.05 188.93-14.98 189.9-13.25 190.86-11.53 190.86-8.75L190.86-8.75 190.86-8.22Q190.86-3.9 188.07-1.66 185.28 0.58 179.73 0.58ZM205.28 0.5L205.28 0.5Q202.46 0.5 200.73-0.35 199.01-1.2 198.23-2.93 197.46-4.65 197.46-7.23L197.46-7.23 197.46-22.63 201.46-22.63 201.46-7.7Q201.46-5.3 202.56-4.16 203.66-3.03 206.26-3.03L206.26-3.03Q207.73-3.03 209.09-3.35 210.46-3.68 211.66-4.28L211.66-4.28 211.28-0.8Q210.11-0.2 208.53 0.15 206.96 0.5 205.28 0.5ZM211.03-20.8L193.46-20.8 193.46-24.05 211.41-24.05 211.03-20.8ZM201.36-23.65L197.48-23.65 197.46-30.5 201.53-31.03 201.36-23.65ZM234.68 0L230.65 0 230.83-5.93 230.68-6.55 230.68-14.33 230.7-15.75Q230.7-18.73 229.19-20.15 227.68-21.58 224.4-21.58L224.4-21.58Q221.78-21.58 219.59-20.83 217.4-20.08 215.7-19.07L215.7-19.07 216.08-22.53Q217.03-23.1 218.34-23.66 219.65-24.23 221.34-24.6 223.03-24.98 225.05-24.98L225.05-24.98Q227.68-24.98 229.52-24.34 231.35-23.7 232.49-22.5 233.63-21.3 234.15-19.6 234.68-17.9 234.68-15.8L234.68-15.8 234.68 0ZM222.25 0.53L222.25 0.53Q218.63 0.53 216.69-1.24 214.75-3 214.75-6.28L214.75-6.28 214.75-7Q214.75-10.38 216.84-12.04 218.93-13.7 223.48-14.35L223.48-14.35 231.2-15.45 231.43-12.5 223.98-11.43Q221.18-11.03 219.98-10.06 218.78-9.1 218.78-7.23L218.78-7.23 218.78-6.83Q218.78-4.9 219.97-3.88 221.15-2.85 223.53-2.85L223.53-2.85Q225.63-2.85 227.13-3.58 228.63-4.3 229.55-5.53 230.48-6.75 230.8-8.25L230.8-8.25 231.43-5.5 230.65-5.5Q230.3-3.9 229.34-2.53 228.38-1.15 226.65-0.31 224.93 0.53 222.25 0.53ZM244.73-14.93L244.73-14.93 243.8-18.05 244.8-18.1Q245.6-21.2 247.55-22.99 249.5-24.78 252.73-24.78L252.73-24.78Q253.53-24.78 254.16-24.65 254.8-24.53 255.3-24.35L255.3-24.35 255.55-20.43Q254.93-20.63 254.16-20.75 253.4-20.88 252.48-20.88L252.48-20.88Q249.73-20.88 247.69-19.35 245.65-17.82 244.73-14.93ZM244.93 0L240.88 0 240.88-24.4 244.83-24.4 244.63-17.2 244.93-16.9 244.93 0ZM268.4 0.5L268.4 0.5Q265.57 0.5 263.85-0.35 262.12-1.2 261.35-2.93 260.57-4.65 260.57-7.23L260.57-7.23 260.57-22.63 264.57-22.63 264.57-7.7Q264.57-5.3 265.67-4.16 266.77-3.03 269.37-3.03L269.37-3.03Q270.85-3.03 272.21-3.35 273.57-3.68 274.77-4.28L274.77-4.28 274.4-0.8Q273.22-0.2 271.65 0.15 270.07 0.5 268.4 0.5ZM274.15-20.8L256.57-20.8 256.57-24.05 274.52-24.05 274.15-20.8ZM264.47-23.65L260.6-23.65 260.57-30.5 264.65-31.03 264.47-23.65ZM289.55 0.55L289.55 0.55Q283.97 0.55 281.15-2.18 278.32-4.9 278.32-9.98L278.32-9.98 278.32-14.33Q278.32-19.48 280.95-22.26 283.57-25.05 288.62-25.05L288.62-25.05Q292.02-25.05 294.3-23.79 296.57-22.53 297.72-20.2 298.87-17.88 298.87-14.65L298.87-14.65 298.87-13.75Q298.87-12.95 298.81-12.15 298.75-11.35 298.65-10.58L298.65-10.58 294.92-10.58Q294.97-11.78 294.98-12.85 295-13.93 295-14.83L295-14.83Q295-17.05 294.28-18.59 293.57-20.13 292.16-20.94 290.75-21.75 288.62-21.75L288.62-21.75Q285.47-21.75 283.9-19.93 282.32-18.1 282.32-14.7L282.32-14.7 282.32-12.38 282.35-11.88 282.35-9.55Q282.35-8.03 282.8-6.8 283.25-5.58 284.21-4.69 285.17-3.8 286.66-3.34 288.15-2.88 290.2-2.88L290.2-2.88Q292.57-2.88 294.62-3.5 296.67-4.13 298.47-5.2L298.47-5.2 298.1-1.7Q296.47-0.68 294.32-0.06 292.17 0.55 289.55 0.55ZM297.8-10.58L280.45-10.58 280.45-13.63 297.8-13.63 297.8-10.58ZM308.12-14.93L308.12-14.93 307.19-18.05 308.19-18.1Q308.99-21.2 310.94-22.99 312.89-24.78 316.12-24.78L316.12-24.78Q316.92-24.78 317.56-24.65 318.19-24.53 318.69-24.35L318.69-24.35 318.94-20.43Q318.32-20.63 317.56-20.75 316.79-20.88 315.87-20.88L315.87-20.88Q313.12-20.88 311.08-19.35 309.04-17.82 308.12-14.93ZM308.32 0L304.27 0 304.27-24.4 308.22-24.4 308.02-17.2 308.32-16.9 308.32 0Z" fill="black"></path></g></svg></g></svg></g></svg></g></svg></g><g transform="matrix(1,0,0,1,418.6968801323578,0)"><svg viewBox="0 0 56.959926805293016 56.959926805293016" height="56.959926805293016" width="56.959926805293016"><g><svg xmlns="http://www.w3.org/2000/svg" xmlns:xlink="http://www.w3.org/1999/xlink" version="1.1" x="0" y="0" viewBox="10.828427092500704 10.828427092500704 78.34314581499859 78.34314581499859" style="enable-background:new 0 0 100 100;" xml:space="preserve" height="56.959926805293016" width="56.959926805293016" class="icon-icon-0" data-fill-palette-color="accent" id="SvgjsSvg7738"><path d="M58.586 26.414L26.414 58.586A2 2 0 0 1 23.586 58.586L11.414 46.414A2 2 0 0 1 11.414 43.586L43.586 11.414A2 2 0 0 1 46.414 11.414L58.586 23.586A2 2 0 0 1 58.586 26.414M88.586 79.586L49 40 40 49 79.586 88.586A2 2 0 0 0 82.414 88.586L88.586 82.414A2 2 0 0 0 88.586 79.586" fill="black"></path></svg></g></svg></g></svg></g><defs><mask></mask></defs></svg><rect width="395.52" height="47.36354010168211" fill="black" stroke="none" visibility="hidden"></rect></g></mask></svg><rect width="395.52" height="47.36354010168211" fill="black" stroke="none" visibility="hidden"></rect></g></mask><linearGradient x1="0.054" x2="0.941" y1="0.5" y2="0.5" id="2c3df036-6e68-4bb8-872a-60cdc1eb2fb3"><stop stop-color="#8c8c8c" offset="0"></stop><stop stop-color="#e3e4e5" offset="0.498"></stop><stop stop-color="#8c8c8c" offset="1"></stop></linearGradient><rect width="395.52" height="47.36354010168211" fill="#000000" mask="url(#ccc6f9dc-9451-42f8-a71d-a97b495818e0)" data-fill-palette-color="secondary"></rect><mask id="e505afa2-2edb-4db0-9153-105c2653eb33"><g id="SvgjsG7770"><svg viewBox="0 0 395.52 47.36354010168211" height="47.36354010168211" width="395.52"><g><svg viewBox="0 0 475.65680693765086 56.959926805293016" height="47.36354010168211" width="395.52"><g></g><g transform="matrix(1,0,0,1,0,7.872175122873347)"><svg viewBox="0 0 395.52 41.21557655954632" height="41.21557655954632" width="395.52"><g id="SvgjsG7769"><svg viewBox="0 0 395.52 41.21557655954632" height="41.21557655954632" width="395.52" id="SvgjsSvg7768"><g><svg viewBox="0 0 395.52 41.21557655954632" height="41.21557655954632" width="395.52"><g transform="matrix(1,0,0,1,0,0)"><svg width="395.52" viewBox="3.78 -32.5 315.16 33.08" height="41.21557655954632" data-palette-color="url(#2579f983-f04a-4de9-a95a-c50284d2ec77)"><g class="wordmark-text-0" data-fill-palette-color="primary" id="SvgjsG7767"></g></svg></g></svg></g></svg></g></svg></g><g transform="matrix(1,0,0,1,418.6968801323578,0)"><svg viewBox="0 0 56.959926805293016 56.959926805293016" height="56.959926805293016" width="56.959926805293016"><g><svg xmlns="http://www.w3.org/2000/svg" xmlns:xlink="http://www.w3.org/1999/xlink" version="1.1" x="0" y="0" viewBox="10.828427092500704 10.828427092500704 78.34314581499859 78.34314581499859" style="enable-background:new 0 0 100 100;" xml:space="preserve" height="56.959926805293016" width="56.959926805293016" class="icon-icon-0" data-fill-palette-color="accent" id="SvgjsSvg7766"><path d="M58.586 26.414L26.414 58.586A2 2 0 0 1 23.586 58.586L11.414 46.414A2 2 0 0 1 11.414 43.586L43.586 11.414A2 2 0 0 1 46.414 11.414L58.586 23.586A2 2 0 0 1 58.586 26.414M88.586 79.586L49 40 40 49 79.586 88.586A2 2 0 0 0 82.414 88.586L88.586 82.414A2 2 0 0 0 88.586 79.586" fill="white"></path></svg></g></svg></g></svg></g><defs><mask></mask></defs><mask><g id="SvgjsG7765"><svg viewBox="0 0 395.52 47.36354010168211" height="47.36354010168211" width="395.52"><g><svg viewBox="0 0 475.65680693765086 56.959926805293016" height="47.36354010168211" width="395.52"><g><rect width="3.716863228614897" height="41.42165444234405" x="405.25000845187145" y="7.769136181474483" fill="black" opacity="1" stroke-width="0" stroke="transparent" fill-opacity="1" class="rect-yte-0" rx="1%" id="SvgjsRect7764" data-palette-color="url(#2579f983-f04a-4de9-a95a-c50284d2ec77)"></rect></g><g transform="matrix(1,0,0,1,0,7.872175122873347)"><svg viewBox="0 0 395.52 41.21557655954632" height="41.21557655954632" width="395.52"><g id="SvgjsG7763"><svg viewBox="0 0 395.52 41.21557655954632" height="41.21557655954632" width="395.52" id="SvgjsSvg7762"><g><svg viewBox="0 0 395.52 41.21557655954632" height="41.21557655954632" width="395.52"><g transform="matrix(1,0,0,1,0,0)"><svg width="395.52" viewBox="3.78 -32.5 315.16 33.08" height="41.21557655954632" data-palette-color="url(#2579f983-f04a-4de9-a95a-c50284d2ec77)"><g class="wordmark-text-0" data-fill-palette-color="primary" id="SvgjsG7761"><path d="M14.48 0L6.58 0 6.58-3.5 14.33-3.5Q18.57-3.5 20.71-5.81 22.85-8.13 22.85-12.43L22.85-12.43 22.85-19.55Q22.85-23.88 20.71-26.18 18.57-28.48 14.33-28.48L14.33-28.48 6.55-28.48 6.55-31.95 14.48-31.95Q20.68-31.95 23.85-28.76 27.03-25.58 27.03-19.58L27.03-19.58 27.03-12.4Q27.03-6.43 23.85-3.21 20.68 0 14.48 0L14.48 0ZM7.88 0L3.78 0 3.78-31.95 7.88-31.95 7.88 0ZM46.62 0L36.17 0 36.17-3.43 46.22-3.43Q49.47-3.43 50.84-4.81 52.2-6.2 52.2-8.65L52.2-8.65 52.2-9.55Q52.2-12.05 50.81-13.43 49.42-14.8 45.97-14.8L45.97-14.8 36.2-14.8 36.2-18.07 45.92-18.07Q49-18.07 50.31-19.41 51.62-20.75 51.62-23.13L51.62-23.13 51.62-23.58Q51.62-25.93 50.36-27.24 49.1-28.55 45.9-28.55L45.9-28.55 36.1-28.55 36.1-31.95 46.27-31.95Q51.37-31.95 53.57-29.93 55.77-27.9 55.77-24.23L55.77-24.23 55.77-23.73Q55.77-20.8 54.37-19.13 52.97-17.45 50.02-17.13L50.02-17.13 50-16.98Q53.37-16.48 54.9-14.63 56.42-12.78 56.42-9.47L56.42-9.47 56.42-8.45Q56.42-4.48 54.12-2.24 51.82 0 46.62 0L46.62 0ZM37.45 0L33.35 0 33.35-31.95 37.45-31.95 37.45 0Z" fill="black"></path><path d="M70.72-31.95L77.02-31.95 89.99-4.45 90.29-4.45 90.12-18.4 90.12-31.95 94.17-31.95 94.17 0 88.02 0 74.89-27.73 74.59-27.73 74.77-13.13 74.77 0 70.72 0 70.72-31.95ZM111.49 0.55L111.49 0.55Q105.92 0.55 103.09-2.18 100.27-4.9 100.27-9.98L100.27-9.98 100.27-14.33Q100.27-19.48 102.89-22.26 105.52-25.05 110.57-25.05L110.57-25.05Q113.97-25.05 116.24-23.79 118.52-22.53 119.67-20.2 120.82-17.88 120.82-14.65L120.82-14.65 120.82-13.75Q120.82-12.95 120.75-12.15 120.69-11.35 120.59-10.58L120.59-10.58 116.87-10.58Q116.92-11.78 116.93-12.85 116.94-13.93 116.94-14.83L116.94-14.83Q116.94-17.05 116.23-18.59 115.51-20.13 114.1-20.94 112.69-21.75 110.57-21.75L110.57-21.75Q107.42-21.75 105.84-19.93 104.27-18.1 104.27-14.7L104.27-14.7 104.27-12.38 104.29-11.88 104.29-9.55Q104.29-8.03 104.74-6.8 105.19-5.58 106.15-4.69 107.12-3.8 108.6-3.34 110.09-2.88 112.14-2.88L112.14-2.88Q114.51-2.88 116.57-3.5 118.62-4.13 120.42-5.2L120.42-5.2 120.04-1.7Q118.42-0.68 116.26-0.06 114.12 0.55 111.49 0.55ZM119.74-10.58L102.39-10.58 102.39-13.63 119.74-13.63 119.74-10.58ZM128.61 0L124.19 0 132.19-13.28 132.19-12.13 124.34-24.4 128.79-24.4 134.94-14.48 135.29-14.48 141.41-24.4 145.86-24.4 138.01-12.13 138.01-13.28 146.01 0 141.59 0 135.29-10.6 134.94-10.6 128.61 0ZM159.46 0.5L159.46 0.5Q156.64 0.5 154.91-0.35 153.19-1.2 152.41-2.93 151.64-4.65 151.64-7.23L151.64-7.23 151.64-22.63 155.64-22.63 155.64-7.7Q155.64-5.3 156.74-4.16 157.84-3.03 160.44-3.03L160.44-3.03Q161.91-3.03 163.27-3.35 164.64-3.68 165.84-4.28L165.84-4.28 165.46-0.8Q164.29-0.2 162.71 0.15 161.14 0.5 159.46 0.5ZM165.21-20.8L147.64-20.8 147.64-24.05 165.59-24.05 165.21-20.8ZM155.54-23.65L151.66-23.65 151.64-30.5 155.71-31.03 155.54-23.65ZM179.73 0.58L179.73 0.58Q177.43 0.58 175.52 0.2 173.61-0.18 172.11-0.73 170.61-1.28 169.61-1.83L169.61-1.83 169.18-5.95Q171.11-4.8 173.72-3.94 176.33-3.08 179.41-3.08L179.41-3.08Q183.11-3.08 184.88-4.39 186.66-5.7 186.66-8.33L186.66-8.33 186.66-8.72Q186.66-10.45 185.96-11.55 185.26-12.65 183.6-13.4 181.93-14.15 179.08-14.8L179.08-14.8Q175.48-15.65 173.32-16.81 171.16-17.98 170.2-19.73 169.23-21.48 169.23-24.08L169.23-24.08 169.23-24.3Q169.23-28.23 171.81-30.36 174.38-32.5 179.61-32.5L179.61-32.5Q183.03-32.5 185.45-31.8 187.86-31.1 189.38-30.25L189.38-30.25 189.76-26.45Q187.98-27.5 185.62-28.24 183.26-28.98 180.21-28.98L180.21-28.98Q177.78-28.98 176.28-28.4 174.78-27.83 174.11-26.75 173.43-25.68 173.43-24.15L173.43-24.15 173.43-24.05Q173.43-22.5 174.1-21.4 174.76-20.3 176.42-19.5 178.08-18.7 181.16-17.95L181.16-17.95Q184.68-17.13 186.81-16.05 188.93-14.98 189.9-13.25 190.86-11.53 190.86-8.75L190.86-8.75 190.86-8.22Q190.86-3.9 188.07-1.66 185.28 0.58 179.73 0.58ZM205.28 0.5L205.28 0.5Q202.46 0.5 200.73-0.35 199.01-1.2 198.23-2.93 197.46-4.65 197.46-7.23L197.46-7.23 197.46-22.63 201.46-22.63 201.46-7.7Q201.46-5.3 202.56-4.16 203.66-3.03 206.26-3.03L206.26-3.03Q207.73-3.03 209.09-3.35 210.46-3.68 211.66-4.28L211.66-4.28 211.28-0.8Q210.11-0.2 208.53 0.15 206.96 0.5 205.28 0.5ZM211.03-20.8L193.46-20.8 193.46-24.05 211.41-24.05 211.03-20.8ZM201.36-23.65L197.48-23.65 197.46-30.5 201.53-31.03 201.36-23.65ZM234.68 0L230.65 0 230.83-5.93 230.68-6.55 230.68-14.33 230.7-15.75Q230.7-18.73 229.19-20.15 227.68-21.58 224.4-21.58L224.4-21.58Q221.78-21.58 219.59-20.83 217.4-20.08 215.7-19.07L215.7-19.07 216.08-22.53Q217.03-23.1 218.34-23.66 219.65-24.23 221.34-24.6 223.03-24.98 225.05-24.98L225.05-24.98Q227.68-24.98 229.52-24.34 231.35-23.7 232.49-22.5 233.63-21.3 234.15-19.6 234.68-17.9 234.68-15.8L234.68-15.8 234.68 0ZM222.25 0.53L222.25 0.53Q218.63 0.53 216.69-1.24 214.75-3 214.75-6.28L214.75-6.28 214.75-7Q214.75-10.38 216.84-12.04 218.93-13.7 223.48-14.35L223.48-14.35 231.2-15.45 231.43-12.5 223.98-11.43Q221.18-11.03 219.98-10.06 218.78-9.1 218.78-7.23L218.78-7.23 218.78-6.83Q218.78-4.9 219.97-3.88 221.15-2.85 223.53-2.85L223.53-2.85Q225.63-2.85 227.13-3.58 228.63-4.3 229.55-5.53 230.48-6.75 230.8-8.25L230.8-8.25 231.43-5.5 230.65-5.5Q230.3-3.9 229.34-2.53 228.38-1.15 226.65-0.31 224.93 0.53 222.25 0.53ZM244.73-14.93L244.73-14.93 243.8-18.05 244.8-18.1Q245.6-21.2 247.55-22.99 249.5-24.78 252.73-24.78L252.73-24.78Q253.53-24.78 254.16-24.65 254.8-24.53 255.3-24.35L255.3-24.35 255.55-20.43Q254.93-20.63 254.16-20.75 253.4-20.88 252.48-20.88L252.48-20.88Q249.73-20.88 247.69-19.35 245.65-17.82 244.73-14.93ZM244.93 0L240.88 0 240.88-24.4 244.83-24.4 244.63-17.2 244.93-16.9 244.93 0ZM268.4 0.5L268.4 0.5Q265.57 0.5 263.85-0.35 262.12-1.2 261.35-2.93 260.57-4.65 260.57-7.23L260.57-7.23 260.57-22.63 264.57-22.63 264.57-7.7Q264.57-5.3 265.67-4.16 266.77-3.03 269.37-3.03L269.37-3.03Q270.85-3.03 272.21-3.35 273.57-3.68 274.77-4.28L274.77-4.28 274.4-0.8Q273.22-0.2 271.65 0.15 270.07 0.5 268.4 0.5ZM274.15-20.8L256.57-20.8 256.57-24.05 274.52-24.05 274.15-20.8ZM264.47-23.65L260.6-23.65 260.57-30.5 264.65-31.03 264.47-23.65ZM289.55 0.55L289.55 0.55Q283.97 0.55 281.15-2.18 278.32-4.9 278.32-9.98L278.32-9.98 278.32-14.33Q278.32-19.48 280.95-22.26 283.57-25.05 288.62-25.05L288.62-25.05Q292.02-25.05 294.3-23.79 296.57-22.53 297.72-20.2 298.87-17.88 298.87-14.65L298.87-14.65 298.87-13.75Q298.87-12.95 298.81-12.15 298.75-11.35 298.65-10.58L298.65-10.58 294.92-10.58Q294.97-11.78 294.98-12.85 295-13.93 295-14.83L295-14.83Q295-17.05 294.28-18.59 293.57-20.13 292.16-20.94 290.75-21.75 288.62-21.75L288.62-21.75Q285.47-21.75 283.9-19.93 282.32-18.1 282.32-14.7L282.32-14.7 282.32-12.38 282.35-11.88 282.35-9.55Q282.35-8.03 282.8-6.8 283.25-5.58 284.21-4.69 285.17-3.8 286.66-3.34 288.15-2.88 290.2-2.88L290.2-2.88Q292.57-2.88 294.62-3.5 296.67-4.13 298.47-5.2L298.47-5.2 298.1-1.7Q296.47-0.68 294.32-0.06 292.17 0.55 289.55 0.55ZM297.8-10.58L280.45-10.58 280.45-13.63 297.8-13.63 297.8-10.58ZM308.12-14.93L308.12-14.93 307.19-18.05 308.19-18.1Q308.99-21.2 310.94-22.99 312.89-24.78 316.12-24.78L316.12-24.78Q316.92-24.78 317.56-24.65 318.19-24.53 318.69-24.35L318.69-24.35 318.94-20.43Q318.32-20.63 317.56-20.75 316.79-20.88 315.87-20.88L315.87-20.88Q313.12-20.88 311.08-19.35 309.04-17.82 308.12-14.93ZM308.32 0L304.27 0 304.27-24.4 308.22-24.4 308.02-17.2 308.32-16.9 308.32 0Z" fill="black"></path></g></svg></g></svg></g></svg></g></svg></g><g transform="matrix(1,0,0,1,418.6968801323578,0)"><svg viewBox="0 0 56.959926805293016 56.959926805293016" height="56.959926805293016" width="56.959926805293016"><g><svg xmlns="http://www.w3.org/2000/svg" xmlns:xlink="http://www.w3.org/1999/xlink" version="1.1" x="0" y="0" viewBox="10.828427092500704 10.828427092500704 78.34314581499859 78.34314581499859" style="enable-background:new 0 0 100 100;" xml:space="preserve" height="56.959926805293016" width="56.959926805293016" class="icon-icon-0" data-fill-palette-color="accent" id="SvgjsSvg7760"><path d="M58.586 26.414L26.414 58.586A2 2 0 0 1 23.586 58.586L11.414 46.414A2 2 0 0 1 11.414 43.586L43.586 11.414A2 2 0 0 1 46.414 11.414L58.586 23.586A2 2 0 0 1 58.586 26.414M88.586 79.586L49 40 40 49 79.586 88.586A2 2 0 0 0 82.414 88.586L88.586 82.414A2 2 0 0 0 88.586 79.586" fill="black"></path></svg></g></svg></g></svg></g><defs><mask></mask></defs></svg><rect width="395.52" height="47.36354010168211" fill="black" stroke="none" visibility="hidden"></rect></g></mask><mask><g id="SvgjsG7759"><svg viewBox="0 0 395.52 47.36354010168211" height="47.36354010168211" width="395.52"><g><svg viewBox="0 0 475.65680693765086 56.959926805293016" height="47.36354010168211" width="395.52"><g></g><g transform="matrix(1,0,0,1,0,7.872175122873347)"><svg viewBox="0 0 395.52 41.21557655954632" height="41.21557655954632" width="395.52"><g id="SvgjsG7758"><svg viewBox="0 0 395.52 41.21557655954632" height="41.21557655954632" width="395.52" id="SvgjsSvg7757"><g><svg viewBox="0 0 395.52 41.21557655954632" height="41.21557655954632" width="395.52"><g transform="matrix(1,0,0,1,0,0)"><svg width="395.52" viewBox="3.78 -32.5 315.16 33.08" height="41.21557655954632" data-palette-color="url(#2579f983-f04a-4de9-a95a-c50284d2ec77)"><g class="wordmark-text-0" data-fill-palette-color="primary" id="SvgjsG7756"><path d="M70.72-31.95L77.02-31.95 89.99-4.45 90.29-4.45 90.12-18.4 90.12-31.95 94.17-31.95 94.17 0 88.02 0 74.89-27.73 74.59-27.73 74.77-13.13 74.77 0 70.72 0 70.72-31.95ZM111.49 0.55L111.49 0.55Q105.92 0.55 103.09-2.18 100.27-4.9 100.27-9.98L100.27-9.98 100.27-14.33Q100.27-19.48 102.89-22.26 105.52-25.05 110.57-25.05L110.57-25.05Q113.97-25.05 116.24-23.79 118.52-22.53 119.67-20.2 120.82-17.88 120.82-14.65L120.82-14.65 120.82-13.75Q120.82-12.95 120.75-12.15 120.69-11.35 120.59-10.58L120.59-10.58 116.87-10.58Q116.92-11.78 116.93-12.85 116.94-13.93 116.94-14.83L116.94-14.83Q116.94-17.05 116.23-18.59 115.51-20.13 114.1-20.94 112.69-21.75 110.57-21.75L110.57-21.75Q107.42-21.75 105.84-19.93 104.27-18.1 104.27-14.7L104.27-14.7 104.27-12.38 104.29-11.88 104.29-9.55Q104.29-8.03 104.74-6.8 105.19-5.58 106.15-4.69 107.12-3.8 108.6-3.34 110.09-2.88 112.14-2.88L112.14-2.88Q114.51-2.88 116.57-3.5 118.62-4.13 120.42-5.2L120.42-5.2 120.04-1.7Q118.42-0.68 116.26-0.06 114.12 0.55 111.49 0.55ZM119.74-10.58L102.39-10.58 102.39-13.63 119.74-13.63 119.74-10.58ZM128.61 0L124.19 0 132.19-13.28 132.19-12.13 124.34-24.4 128.79-24.4 134.94-14.48 135.29-14.48 141.41-24.4 145.86-24.4 138.01-12.13 138.01-13.28 146.01 0 141.59 0 135.29-10.6 134.94-10.6 128.61 0ZM159.46 0.5L159.46 0.5Q156.64 0.5 154.91-0.35 153.19-1.2 152.41-2.93 151.64-4.65 151.64-7.23L151.64-7.23 151.64-22.63 155.64-22.63 155.64-7.7Q155.64-5.3 156.74-4.16 157.84-3.03 160.44-3.03L160.44-3.03Q161.91-3.03 163.27-3.35 164.64-3.68 165.84-4.28L165.84-4.28 165.46-0.8Q164.29-0.2 162.71 0.15 161.14 0.5 159.46 0.5ZM165.21-20.8L147.64-20.8 147.64-24.05 165.59-24.05 165.21-20.8ZM155.54-23.65L151.66-23.65 151.64-30.5 155.71-31.03 155.54-23.65ZM179.73 0.58L179.73 0.58Q177.43 0.58 175.52 0.2 173.61-0.18 172.11-0.73 170.61-1.28 169.61-1.83L169.61-1.83 169.18-5.95Q171.11-4.8 173.72-3.94 176.33-3.08 179.41-3.08L179.41-3.08Q183.11-3.08 184.88-4.39 186.66-5.7 186.66-8.33L186.66-8.33 186.66-8.72Q186.66-10.45 185.96-11.55 185.26-12.65 183.6-13.4 181.93-14.15 179.08-14.8L179.08-14.8Q175.48-15.65 173.32-16.81 171.16-17.98 170.2-19.73 169.23-21.48 169.23-24.08L169.23-24.08 169.23-24.3Q169.23-28.23 171.81-30.36 174.38-32.5 179.61-32.5L179.61-32.5Q183.03-32.5 185.45-31.8 187.86-31.1 189.38-30.25L189.38-30.25 189.76-26.45Q187.98-27.5 185.62-28.24 183.26-28.98 180.21-28.98L180.21-28.98Q177.78-28.98 176.28-28.4 174.78-27.83 174.11-26.75 173.43-25.68 173.43-24.15L173.43-24.15 173.43-24.05Q173.43-22.5 174.1-21.4 174.76-20.3 176.42-19.5 178.08-18.7 181.16-17.95L181.16-17.95Q184.68-17.13 186.81-16.05 188.93-14.98 189.9-13.25 190.86-11.53 190.86-8.75L190.86-8.75 190.86-8.22Q190.86-3.9 188.07-1.66 185.28 0.58 179.73 0.58ZM205.28 0.5L205.28 0.5Q202.46 0.5 200.73-0.35 199.01-1.2 198.23-2.93 197.46-4.65 197.46-7.23L197.46-7.23 197.46-22.63 201.46-22.63 201.46-7.7Q201.46-5.3 202.56-4.16 203.66-3.03 206.26-3.03L206.26-3.03Q207.73-3.03 209.09-3.35 210.46-3.68 211.66-4.28L211.66-4.28 211.28-0.8Q210.11-0.2 208.53 0.15 206.96 0.5 205.28 0.5ZM211.03-20.8L193.46-20.8 193.46-24.05 211.41-24.05 211.03-20.8ZM201.36-23.65L197.48-23.65 197.46-30.5 201.53-31.03 201.36-23.65ZM234.68 0L230.65 0 230.83-5.93 230.68-6.55 230.68-14.33 230.7-15.75Q230.7-18.73 229.19-20.15 227.68-21.58 224.4-21.58L224.4-21.58Q221.78-21.58 219.59-20.83 217.4-20.08 215.7-19.07L215.7-19.07 216.08-22.53Q217.03-23.1 218.34-23.66 219.65-24.23 221.34-24.6 223.03-24.98 225.05-24.98L225.05-24.98Q227.68-24.98 229.52-24.34 231.35-23.7 232.49-22.5 233.63-21.3 234.15-19.6 234.68-17.9 234.68-15.8L234.68-15.8 234.68 0ZM222.25 0.53L222.25 0.53Q218.63 0.53 216.69-1.24 214.75-3 214.75-6.28L214.75-6.28 214.75-7Q214.75-10.38 216.84-12.04 218.93-13.7 223.48-14.35L223.48-14.35 231.2-15.45 231.43-12.5 223.98-11.43Q221.18-11.03 219.98-10.06 218.78-9.1 218.78-7.23L218.78-7.23 218.78-6.83Q218.78-4.9 219.97-3.88 221.15-2.85 223.53-2.85L223.53-2.85Q225.63-2.85 227.13-3.58 228.63-4.3 229.55-5.53 230.48-6.75 230.8-8.25L230.8-8.25 231.43-5.5 230.65-5.5Q230.3-3.9 229.34-2.53 228.38-1.15 226.65-0.31 224.93 0.53 222.25 0.53ZM244.73-14.93L244.73-14.93 243.8-18.05 244.8-18.1Q245.6-21.2 247.55-22.99 249.5-24.78 252.73-24.78L252.73-24.78Q253.53-24.78 254.16-24.65 254.8-24.53 255.3-24.35L255.3-24.35 255.55-20.43Q254.93-20.63 254.16-20.75 253.4-20.88 252.48-20.88L252.48-20.88Q249.73-20.88 247.69-19.35 245.65-17.82 244.73-14.93ZM244.93 0L240.88 0 240.88-24.4 244.83-24.4 244.63-17.2 244.93-16.9 244.93 0ZM268.4 0.5L268.4 0.5Q265.57 0.5 263.85-0.35 262.12-1.2 261.35-2.93 260.57-4.65 260.57-7.23L260.57-7.23 260.57-22.63 264.57-22.63 264.57-7.7Q264.57-5.3 265.67-4.16 266.77-3.03 269.37-3.03L269.37-3.03Q270.85-3.03 272.21-3.35 273.57-3.68 274.77-4.28L274.77-4.28 274.4-0.8Q273.22-0.2 271.65 0.15 270.07 0.5 268.4 0.5ZM274.15-20.8L256.57-20.8 256.57-24.05 274.52-24.05 274.15-20.8ZM264.47-23.65L260.6-23.65 260.57-30.5 264.65-31.03 264.47-23.65ZM289.55 0.55L289.55 0.55Q283.97 0.55 281.15-2.18 278.32-4.9 278.32-9.98L278.32-9.98 278.32-14.33Q278.32-19.48 280.95-22.26 283.57-25.05 288.62-25.05L288.62-25.05Q292.02-25.05 294.3-23.79 296.57-22.53 297.72-20.2 298.87-17.88 298.87-14.65L298.87-14.65 298.87-13.75Q298.87-12.95 298.81-12.15 298.75-11.35 298.65-10.58L298.65-10.58 294.92-10.58Q294.97-11.78 294.98-12.85 295-13.93 295-14.83L295-14.83Q295-17.05 294.28-18.59 293.57-20.13 292.16-20.94 290.75-21.75 288.62-21.75L288.62-21.75Q285.47-21.75 283.9-19.93 282.32-18.1 282.32-14.7L282.32-14.7 282.32-12.38 282.35-11.88 282.35-9.55Q282.35-8.03 282.8-6.8 283.25-5.58 284.21-4.69 285.17-3.8 286.66-3.34 288.15-2.88 290.2-2.88L290.2-2.88Q292.57-2.88 294.62-3.5 296.67-4.13 298.47-5.2L298.47-5.2 298.1-1.7Q296.47-0.68 294.32-0.06 292.17 0.55 289.55 0.55ZM297.8-10.58L280.45-10.58 280.45-13.63 297.8-13.63 297.8-10.58ZM308.12-14.93L308.12-14.93 307.19-18.05 308.19-18.1Q308.99-21.2 310.94-22.99 312.89-24.78 316.12-24.78L316.12-24.78Q316.92-24.78 317.56-24.65 318.19-24.53 318.69-24.35L318.69-24.35 318.94-20.43Q318.32-20.63 317.56-20.75 316.79-20.88 315.87-20.88L315.87-20.88Q313.12-20.88 311.08-19.35 309.04-17.82 308.12-14.93ZM308.32 0L304.27 0 304.27-24.4 308.22-24.4 308.02-17.2 308.32-16.9 308.32 0Z" fill="black"></path></g></svg></g></svg></g></svg></g></svg></g><g transform="matrix(1,0,0,1,418.6968801323578,0)"><svg viewBox="0 0 56.959926805293016 56.959926805293016" height="56.959926805293016" width="56.959926805293016"><g><svg xmlns="http://www.w3.org/2000/svg" xmlns:xlink="http://www.w3.org/1999/xlink" version="1.1" x="0" y="0" viewBox="10.828427092500704 10.828427092500704 78.34314581499859 78.34314581499859" style="enable-background:new 0 0 100 100;" xml:space="preserve" height="56.959926805293016" width="56.959926805293016" class="icon-icon-0" data-fill-palette-color="accent" id="SvgjsSvg7755"><path d="M58.586 26.414L26.414 58.586A2 2 0 0 1 23.586 58.586L11.414 46.414A2 2 0 0 1 11.414 43.586L43.586 11.414A2 2 0 0 1 46.414 11.414L58.586 23.586A2 2 0 0 1 58.586 26.414M88.586 79.586L49 40 40 49 79.586 88.586A2 2 0 0 0 82.414 88.586L88.586 82.414A2 2 0 0 0 88.586 79.586" fill="black"></path></svg></g></svg></g></svg></g><defs><mask></mask></defs><mask><g id="SvgjsG7754"><svg viewBox="0 0 395.52 47.36354010168211" height="47.36354010168211" width="395.52"><g><svg viewBox="0 0 475.65680693765086 56.959926805293016" height="47.36354010168211" width="395.52"><g><rect width="3.716863228614897" height="41.42165444234405" x="405.25000845187145" y="7.769136181474483" fill="black" opacity="1" stroke-width="0" stroke="transparent" fill-opacity="1" class="rect-yte-0" rx="1%" id="SvgjsRect7753" data-palette-color="url(#2579f983-f04a-4de9-a95a-c50284d2ec77)"></rect></g><g transform="matrix(1,0,0,1,0,7.872175122873347)"><svg viewBox="0 0 395.52 41.21557655954632" height="41.21557655954632" width="395.52"><g id="SvgjsG7752"><svg viewBox="0 0 395.52 41.21557655954632" height="41.21557655954632" width="395.52" id="SvgjsSvg7751"><g><svg viewBox="0 0 395.52 41.21557655954632" height="41.21557655954632" width="395.52"><g transform="matrix(1,0,0,1,0,0)"><svg width="395.52" viewBox="3.78 -32.5 315.16 33.08" height="41.21557655954632" data-palette-color="url(#2579f983-f04a-4de9-a95a-c50284d2ec77)"><g class="wordmark-text-0" data-fill-palette-color="primary" id="SvgjsG7750"><path d="M14.48 0L6.58 0 6.58-3.5 14.33-3.5Q18.57-3.5 20.71-5.81 22.85-8.13 22.85-12.43L22.85-12.43 22.85-19.55Q22.85-23.88 20.71-26.18 18.57-28.48 14.33-28.48L14.33-28.48 6.55-28.48 6.55-31.95 14.48-31.95Q20.68-31.95 23.85-28.76 27.03-25.58 27.03-19.58L27.03-19.58 27.03-12.4Q27.03-6.43 23.85-3.21 20.68 0 14.48 0L14.48 0ZM7.88 0L3.78 0 3.78-31.95 7.88-31.95 7.88 0ZM46.62 0L36.17 0 36.17-3.43 46.22-3.43Q49.47-3.43 50.84-4.81 52.2-6.2 52.2-8.65L52.2-8.65 52.2-9.55Q52.2-12.05 50.81-13.43 49.42-14.8 45.97-14.8L45.97-14.8 36.2-14.8 36.2-18.07 45.92-18.07Q49-18.07 50.31-19.41 51.62-20.75 51.62-23.13L51.62-23.13 51.62-23.58Q51.62-25.93 50.36-27.24 49.1-28.55 45.9-28.55L45.9-28.55 36.1-28.55 36.1-31.95 46.27-31.95Q51.37-31.95 53.57-29.93 55.77-27.9 55.77-24.23L55.77-24.23 55.77-23.73Q55.77-20.8 54.37-19.13 52.97-17.45 50.02-17.13L50.02-17.13 50-16.98Q53.37-16.48 54.9-14.63 56.42-12.78 56.42-9.47L56.42-9.47 56.42-8.45Q56.42-4.48 54.12-2.24 51.82 0 46.62 0L46.62 0ZM37.45 0L33.35 0 33.35-31.95 37.45-31.95 37.45 0Z" fill="black"></path><path d="M70.72-31.95L77.02-31.95 89.99-4.45 90.29-4.45 90.12-18.4 90.12-31.95 94.17-31.95 94.17 0 88.02 0 74.89-27.73 74.59-27.73 74.77-13.13 74.77 0 70.72 0 70.72-31.95ZM111.49 0.55L111.49 0.55Q105.92 0.55 103.09-2.18 100.27-4.9 100.27-9.98L100.27-9.98 100.27-14.33Q100.27-19.48 102.89-22.26 105.52-25.05 110.57-25.05L110.57-25.05Q113.97-25.05 116.24-23.79 118.52-22.53 119.67-20.2 120.82-17.88 120.82-14.65L120.82-14.65 120.82-13.75Q120.82-12.95 120.75-12.15 120.69-11.35 120.59-10.58L120.59-10.58 116.87-10.58Q116.92-11.78 116.93-12.85 116.94-13.93 116.94-14.83L116.94-14.83Q116.94-17.05 116.23-18.59 115.51-20.13 114.1-20.94 112.69-21.75 110.57-21.75L110.57-21.75Q107.42-21.75 105.84-19.93 104.27-18.1 104.27-14.7L104.27-14.7 104.27-12.38 104.29-11.88 104.29-9.55Q104.29-8.03 104.74-6.8 105.19-5.58 106.15-4.69 107.12-3.8 108.6-3.34 110.09-2.88 112.14-2.88L112.14-2.88Q114.51-2.88 116.57-3.5 118.62-4.13 120.42-5.2L120.42-5.2 120.04-1.7Q118.42-0.68 116.26-0.06 114.12 0.55 111.49 0.55ZM119.74-10.58L102.39-10.58 102.39-13.63 119.74-13.63 119.74-10.58ZM128.61 0L124.19 0 132.19-13.28 132.19-12.13 124.34-24.4 128.79-24.4 134.94-14.48 135.29-14.48 141.41-24.4 145.86-24.4 138.01-12.13 138.01-13.28 146.01 0 141.59 0 135.29-10.6 134.94-10.6 128.61 0ZM159.46 0.5L159.46 0.5Q156.64 0.5 154.91-0.35 153.19-1.2 152.41-2.93 151.64-4.65 151.64-7.23L151.64-7.23 151.64-22.63 155.64-22.63 155.64-7.7Q155.64-5.3 156.74-4.16 157.84-3.03 160.44-3.03L160.44-3.03Q161.91-3.03 163.27-3.35 164.64-3.68 165.84-4.28L165.84-4.28 165.46-0.8Q164.29-0.2 162.71 0.15 161.14 0.5 159.46 0.5ZM165.21-20.8L147.64-20.8 147.64-24.05 165.59-24.05 165.21-20.8ZM155.54-23.65L151.66-23.65 151.64-30.5 155.71-31.03 155.54-23.65ZM179.73 0.58L179.73 0.58Q177.43 0.58 175.52 0.2 173.61-0.18 172.11-0.73 170.61-1.28 169.61-1.83L169.61-1.83 169.18-5.95Q171.11-4.8 173.72-3.94 176.33-3.08 179.41-3.08L179.41-3.08Q183.11-3.08 184.88-4.39 186.66-5.7 186.66-8.33L186.66-8.33 186.66-8.72Q186.66-10.45 185.96-11.55 185.26-12.65 183.6-13.4 181.93-14.15 179.08-14.8L179.08-14.8Q175.48-15.65 173.32-16.81 171.16-17.98 170.2-19.73 169.23-21.48 169.23-24.08L169.23-24.08 169.23-24.3Q169.23-28.23 171.81-30.36 174.38-32.5 179.61-32.5L179.61-32.5Q183.03-32.5 185.45-31.8 187.86-31.1 189.38-30.25L189.38-30.25 189.76-26.45Q187.98-27.5 185.62-28.24 183.26-28.98 180.21-28.98L180.21-28.98Q177.78-28.98 176.28-28.4 174.78-27.83 174.11-26.75 173.43-25.68 173.43-24.15L173.43-24.15 173.43-24.05Q173.43-22.5 174.1-21.4 174.76-20.3 176.42-19.5 178.08-18.7 181.16-17.95L181.16-17.95Q184.68-17.13 186.81-16.05 188.93-14.98 189.9-13.25 190.86-11.53 190.86-8.75L190.86-8.75 190.86-8.22Q190.86-3.9 188.07-1.66 185.28 0.58 179.73 0.58ZM205.28 0.5L205.28 0.5Q202.46 0.5 200.73-0.35 199.01-1.2 198.23-2.93 197.46-4.65 197.46-7.23L197.46-7.23 197.46-22.63 201.46-22.63 201.46-7.7Q201.46-5.3 202.56-4.16 203.66-3.03 206.26-3.03L206.26-3.03Q207.73-3.03 209.09-3.35 210.46-3.68 211.66-4.28L211.66-4.28 211.28-0.8Q210.11-0.2 208.53 0.15 206.96 0.5 205.28 0.5ZM211.03-20.8L193.46-20.8 193.46-24.05 211.41-24.05 211.03-20.8ZM201.36-23.65L197.48-23.65 197.46-30.5 201.53-31.03 201.36-23.65ZM234.68 0L230.65 0 230.83-5.93 230.68-6.55 230.68-14.33 230.7-15.75Q230.7-18.73 229.19-20.15 227.68-21.58 224.4-21.58L224.4-21.58Q221.78-21.58 219.59-20.83 217.4-20.08 215.7-19.07L215.7-19.07 216.08-22.53Q217.03-23.1 218.34-23.66 219.65-24.23 221.34-24.6 223.03-24.98 225.05-24.98L225.05-24.98Q227.68-24.98 229.52-24.34 231.35-23.7 232.49-22.5 233.63-21.3 234.15-19.6 234.68-17.9 234.68-15.8L234.68-15.8 234.68 0ZM222.25 0.53L222.25 0.53Q218.63 0.53 216.69-1.24 214.75-3 214.75-6.28L214.75-6.28 214.75-7Q214.75-10.38 216.84-12.04 218.93-13.7 223.48-14.35L223.48-14.35 231.2-15.45 231.43-12.5 223.98-11.43Q221.18-11.03 219.98-10.06 218.78-9.1 218.78-7.23L218.78-7.23 218.78-6.83Q218.78-4.9 219.97-3.88 221.15-2.85 223.53-2.85L223.53-2.85Q225.63-2.85 227.13-3.58 228.63-4.3 229.55-5.53 230.48-6.75 230.8-8.25L230.8-8.25 231.43-5.5 230.65-5.5Q230.3-3.9 229.34-2.53 228.38-1.15 226.65-0.31 224.93 0.53 222.25 0.53ZM244.73-14.93L244.73-14.93 243.8-18.05 244.8-18.1Q245.6-21.2 247.55-22.99 249.5-24.78 252.73-24.78L252.73-24.78Q253.53-24.78 254.16-24.65 254.8-24.53 255.3-24.35L255.3-24.35 255.55-20.43Q254.93-20.63 254.16-20.75 253.4-20.88 252.48-20.88L252.48-20.88Q249.73-20.88 247.69-19.35 245.65-17.82 244.73-14.93ZM244.93 0L240.88 0 240.88-24.4 244.83-24.4 244.63-17.2 244.93-16.9 244.93 0ZM268.4 0.5L268.4 0.5Q265.57 0.5 263.85-0.35 262.12-1.2 261.35-2.93 260.57-4.65 260.57-7.23L260.57-7.23 260.57-22.63 264.57-22.63 264.57-7.7Q264.57-5.3 265.67-4.16 266.77-3.03 269.37-3.03L269.37-3.03Q270.85-3.03 272.21-3.35 273.57-3.68 274.77-4.28L274.77-4.28 274.4-0.8Q273.22-0.2 271.65 0.15 270.07 0.5 268.4 0.5ZM274.15-20.8L256.57-20.8 256.57-24.05 274.52-24.05 274.15-20.8ZM264.47-23.65L260.6-23.65 260.57-30.5 264.65-31.03 264.47-23.65ZM289.55 0.55L289.55 0.55Q283.97 0.55 281.15-2.18 278.32-4.9 278.32-9.98L278.32-9.98 278.32-14.33Q278.32-19.48 280.95-22.26 283.57-25.05 288.62-25.05L288.62-25.05Q292.02-25.05 294.3-23.79 296.57-22.53 297.72-20.2 298.87-17.88 298.87-14.65L298.87-14.65 298.87-13.75Q298.87-12.95 298.81-12.15 298.75-11.35 298.65-10.58L298.65-10.58 294.92-10.58Q294.97-11.78 294.98-12.85 295-13.93 295-14.83L295-14.83Q295-17.05 294.28-18.59 293.57-20.13 292.16-20.94 290.75-21.75 288.62-21.75L288.62-21.75Q285.47-21.75 283.9-19.93 282.32-18.1 282.32-14.7L282.32-14.7 282.32-12.38 282.35-11.88 282.35-9.55Q282.35-8.03 282.8-6.8 283.25-5.58 284.21-4.69 285.17-3.8 286.66-3.34 288.15-2.88 290.2-2.88L290.2-2.88Q292.57-2.88 294.62-3.5 296.67-4.13 298.47-5.2L298.47-5.2 298.1-1.7Q296.47-0.68 294.32-0.06 292.17 0.55 289.55 0.55ZM297.8-10.58L280.45-10.58 280.45-13.63 297.8-13.63 297.8-10.58ZM308.12-14.93L308.12-14.93 307.19-18.05 308.19-18.1Q308.99-21.2 310.94-22.99 312.89-24.78 316.12-24.78L316.12-24.78Q316.92-24.78 317.56-24.65 318.19-24.53 318.69-24.35L318.69-24.35 318.94-20.43Q318.32-20.63 317.56-20.75 316.79-20.88 315.87-20.88L315.87-20.88Q313.12-20.88 311.08-19.35 309.04-17.82 308.12-14.93ZM308.32 0L304.27 0 304.27-24.4 308.22-24.4 308.02-17.2 308.32-16.9 308.32 0Z" fill="black"></path></g></svg></g></svg></g></svg></g></svg></g><g transform="matrix(1,0,0,1,418.6968801323578,0)"><svg viewBox="0 0 56.959926805293016 56.959926805293016" height="56.959926805293016" width="56.959926805293016"><g><svg xmlns="http://www.w3.org/2000/svg" xmlns:xlink="http://www.w3.org/1999/xlink" version="1.1" x="0" y="0" viewBox="10.828427092500704 10.828427092500704 78.34314581499859 78.34314581499859" style="enable-background:new 0 0 100 100;" xml:space="preserve" height="56.959926805293016" width="56.959926805293016" class="icon-icon-0" data-fill-palette-color="accent" id="SvgjsSvg7749"><path d="M58.586 26.414L26.414 58.586A2 2 0 0 1 23.586 58.586L11.414 46.414A2 2 0 0 1 11.414 43.586L43.586 11.414A2 2 0 0 1 46.414 11.414L58.586 23.586A2 2 0 0 1 58.586 26.414M88.586 79.586L49 40 40 49 79.586 88.586A2 2 0 0 0 82.414 88.586L88.586 82.414A2 2 0 0 0 88.586 79.586" fill="black"></path></svg></g></svg></g></svg></g><defs><mask></mask></defs></svg><rect width="395.52" height="47.36354010168211" fill="black" stroke="none" visibility="hidden"></rect></g></mask></svg><rect width="395.52" height="47.36354010168211" fill="black" stroke="none" visibility="hidden"></rect></g></mask></svg><rect width="395.52" height="47.36354010168211" fill="black" stroke="none" visibility="hidden"></rect></g></mask><linearGradient x1="0.054" x2="0.941" y1="0.5" y2="0.5" id="120087c0-ba6e-4a85-9f8e-f2799e725ecb"><stop stop-color="#8c8c8c" offset="0"></stop><stop stop-color="#e3e4e5" offset="0.498"></stop><stop stop-color="#8c8c8c" offset="1"></stop></linearGradient><rect width="395.52" height="47.36354010168211" fill="#000000" mask="url(#e505afa2-2edb-4db0-9153-105c2653eb33)" data-fill-palette-color="accent"></rect></svg><rect width="395.52" height="47.36354010168211" fill="none" stroke="none" visibility="hidden"></rect></g></svg></g></svg>